<svg xmlns="http://www.w3.org/2000/svg" width="1437" height="2275" viewBox="0 0 1437 2275" version="1.1"><path d="M 719.607 52.582 C 719.273 53.452, 719 70.640, 719 90.778 L 719 127.392 721.636 131.196 C 724.071 134.709, 724.640 135, 729.085 135 C 733.368 135, 734.179 134.632, 736.449 131.656 L 739 128.311 739 90.816 L 739 53.321 736.453 52.161 C 735.052 51.522, 730.825 51, 727.060 51 C 721.740 51, 720.079 51.353, 719.607 52.582 M 780.500 108.521 C 777.589 110.898, 777.490 111.263, 777.161 120.822 L 776.823 130.673 779.988 133.337 C 781.729 134.801, 784.177 136, 785.428 136 C 788.873 136, 794.281 133.929, 796.306 131.833 C 797.946 130.135, 798.309 130.103, 800.278 131.482 C 804.728 134.599, 807.966 133.481, 816.161 125.997 L 823.823 119 860.411 119 C 884.137 119, 897 119.352, 897 120 C 897 120.550, 898.295 121, 899.879 121 C 902.131 121, 903.026 120.351, 903.993 118.018 C 906.526 111.901, 908.231 112.134, 861.308 112.176 C 819.653 112.214, 818.393 112.158, 814.539 110.108 C 810.276 107.840, 802.847 107.323, 797.316 108.909 C 794.724 109.653, 793.831 109.470, 792.418 107.909 C 789.938 105.170, 784.247 105.462, 780.500 108.521 M 892.655 163.829 C 891.202 165.434, 891 168.920, 891 192.411 L 891 219.164 839.423 270.582 L 787.845 322 720.314 322 L 652.782 322 630.298 344 L 607.813 366 506.632 366 L 405.450 366 398 373.500 L 390.550 381 285.949 381 L 181.349 381 179.174 383.314 C 177.978 384.587, 177 386.510, 177 387.588 C 177 388.702, 180.350 392.878, 184.772 397.273 L 192.544 405 335.522 405.018 L 478.500 405.037 507.750 433.219 L 537 461.401 537 492.076 L 537 522.751 503.500 555.493 L 470 588.234 470 647.943 L 470 707.651 467.686 709.826 L 465.371 712 362.267 712 C 305.560 712, 258.452 711.727, 257.582 711.393 C 256.420 710.947, 256 709.406, 256 705.593 C 256 702.737, 255.460 699.860, 254.800 699.200 C 253.537 697.937, 229.636 697.435, 226.582 698.607 C 225.534 699.009, 225 700.462, 225 702.911 C 225 705.823, 225.743 707.328, 228.500 710 C 231.818 713.216, 232 713.743, 232 720.129 L 232 726.866 236.500 730.554 L 241 734.241 241 749.918 L 241 765.594 237 769.500 L 233 773.406 233 853.579 L 233 933.752 218.500 947.483 L 204 961.214 204 995.910 L 204 1030.606 192.157 1042.303 L 180.315 1054 171.400 1054 L 162.485 1054 138.242 1078.258 L 114 1102.515 114.023 1118.008 L 114.046 1133.500 125.015 1145.500 L 135.983 1157.500 135.992 1177.510 L 136 1197.519 155.500 1217 L 175 1236.481 175 1277.503 L 175 1318.525 189.750 1333.175 L 204.500 1347.825 236.995 1348.538 L 269.490 1349.250 309.245 1388.253 L 349 1427.256 349 1469.384 L 349 1511.513 378 1540.500 L 407 1569.487 407 1590.779 C 407 1618.341, 406.270 1617, 421.271 1617 C 431.565 1617, 432.537 1616.828, 435.656 1614.449 L 439 1611.898 439 1602.610 C 439 1593.626, 439.084 1593.283, 441.547 1592.161 C 443.102 1591.452, 449.689 1591, 458.466 1591 L 472.838 1591 480.061 1583 L 487.285 1575 584.392 1574.995 L 681.500 1574.990 685.500 1572.526 C 689.478 1570.076, 689.641 1570.062, 715.534 1570.031 L 741.568 1570 747 1575.500 C 751.618 1580.176, 752.980 1581, 756.093 1581 C 759.436 1581, 760.503 1581.816, 768.377 1590.394 L 777 1599.788 777 1682.191 L 777 1764.594 781 1768.500 L 785 1772.406 785 1796.814 L 785 1821.221 796.500 1833.479 L 808 1845.736 808 1852.135 L 808 1858.533 819.500 1870 L 831 1881.467 831 1913.355 L 831 1945.242 873.500 1988.494 L 916 2031.746 916 2059.316 C 916 2086.673, 916.017 2086.899, 918.223 2088.443 C 920.068 2089.736, 924.125 2090, 942.166 2090 C 963.478 2090, 963.916 2089.958, 965.443 2087.777 C 966.721 2085.953, 967 2082.110, 967 2066.313 C 967 2043.582, 967.886 2045, 953.681 2045 C 941.590 2045, 941 2044.339, 941 2030.781 L 941 2021.491 898.500 1979 L 856 1936.509 856 1904.489 L 856 1872.469 844 1860.500 L 832 1848.531 831.992 1842.016 L 831.983 1835.500 821.015 1823.500 L 810.046 1811.500 810.023 1787.958 L 810 1764.416 805.500 1760 L 801 1755.584 801 1671.466 L 801 1587.349 780.411 1566.174 L 759.822 1545 719.805 1545 L 679.788 1545 676 1548 L 672.212 1551 547.849 1551 L 423.485 1551 398.783 1526.250 L 374.081 1501.500 372.985 1460.054 L 371.889 1418.609 325.195 1371.389 L 278.500 1324.169 246.475 1324.084 L 214.450 1324 207.225 1316.726 L 200 1309.453 200 1300.426 C 200 1294.739, 200.444 1290.956, 201.200 1290.200 C 202.011 1289.389, 206.644 1289, 215.497 1289 L 228.594 1289 232.500 1293 L 236.406 1297 263.323 1297 L 290.239 1297 345.120 1351.127 L 400 1405.254 400 1425.662 C 400 1449.714, 400.383 1451, 407.548 1451 C 411.431 1451, 412.225 1450.562, 415.433 1446.647 L 419 1442.294 419 1395.258 L 419 1348.223 408.120 1338.111 L 397.240 1328 377.040 1328 L 356.841 1328 320.809 1291.500 L 284.778 1255 261.097 1255 L 237.416 1255 233 1259.500 L 228.584 1264 219.042 1263.996 L 209.500 1263.993 204.750 1258.115 L 200 1252.238 200 1239.859 L 200 1227.481 180.500 1208 L 161 1188.519 161 1167.993 L 161 1147.467 149.500 1136 L 138 1124.533 138 1119.006 L 138 1113.479 155.250 1096.335 L 172.500 1079.192 181.494 1078.486 L 190.488 1077.780 209.628 1059.390 L 228.768 1041 229.505 1006.599 L 230.242 972.198 242.941 959.099 L 255.640 946 309.599 946 L 363.558 946 369.779 939.723 L 376 933.446 376 927.338 C 376 917.373, 379.916 918, 317.703 918 L 264.335 918 261.167 914.059 L 258 910.117 258 841.226 L 258 772.335 262 769.120 L 266 765.906 266 753.641 L 266 741.376 268.960 739.188 L 271.919 737 368.785 737 L 465.651 737 467.826 739.314 C 469.972 741.599, 470 742.079, 470 776.279 C 470 816.645, 468.731 813, 482.779 813 C 490.142 813, 491.978 812.682, 493.345 811.171 C 494.863 809.494, 495 800.717, 495 705.416 L 495 601.489 528.500 568 L 562 534.511 562 466.412 L 562 398.313 566.788 394.276 L 571.577 390.238 597.166 389.500 L 622.756 388.762 643.619 367.881 L 664.482 347 731.994 347 L 799.506 347 857.737 288.750 L 915.968 230.500 916.257 211 L 916.546 191.500 916.773 212.163 L 917 232.827 862 287.220 L 807 341.613 807 367.576 L 807 393.540 816.341 402.842 L 825.683 412.144 826.372 447.751 L 827.062 483.357 831.742 488.928 C 834.316 491.993, 847.352 505.552, 860.711 519.060 L 885 543.619 885 589.774 C 885 634.383, 884.935 635.964, 883.066 636.965 C 881.795 637.645, 860.780 638, 821.778 638 L 762.425 638 757.500 643 L 752.575 648 735.673 648 L 718.772 648 712.741 653.224 L 706.710 658.449 707.219 787.112 L 707.727 915.775 710.482 919.388 L 713.237 923 722.084 923 C 732.684 923, 733 923.324, 733 934.195 L 733 941.521 715 959.500 L 697 977.479 697 1025.021 L 697 1072.563 702.779 1078.281 L 708.558 1084 746.279 1084 L 784 1084 784 1115.067 L 784 1146.133 786.527 1149.446 L 789.053 1152.759 807.775 1153.498 L 826.496 1154.236 835.129 1162.118 L 843.763 1170 999.102 1170 L 1154.442 1170 1160.221 1175.719 L 1166 1181.437 1166 1224.626 L 1166 1267.814 1161.111 1271.907 L 1156.222 1276 1147.286 1276 C 1139.237 1276, 1138.133 1276.230, 1136.174 1278.314 C 1134.347 1280.259, 1134 1281.808, 1134 1288.010 C 1134 1294.657, 1134.267 1295.669, 1136.687 1298.195 L 1139.374 1301 1157.308 1301 L 1175.242 1301 1188.257 1288.758 L 1201.273 1276.516 1200.793 1224.051 L 1200.313 1171.587 1186.406 1158.328 L 1172.500 1145.069 1065.603 1145.034 L 958.706 1145 954.296 1141.386 L 949.886 1137.772 918.521 1138.507 L 887.157 1139.242 883.883 1142.621 L 880.608 1146 870.927 1146 L 861.246 1146 853.529 1137.500 L 845.812 1129 828.594 1129 L 811.376 1129 809.188 1126.040 C 807.313 1123.505, 807 1121.774, 807 1113.950 L 807 1104.819 811.500 1099.552 L 816 1094.284 816 1072.297 C 816 1046.976, 816.008 1047, 807.575 1047 C 803.222 1047, 802.262 1047.478, 796.543 1052.500 L 790.278 1058 757.254 1058 L 724.230 1058 722.615 1055.535 C 721.214 1053.396, 721 1048.851, 721 1021.166 L 721 989.262 742 969.024 L 763 948.786 763.019 928.143 L 763.038 907.500 771.591 898.268 C 777.965 891.387, 780.062 888.458, 779.822 886.768 L 779.500 884.500 757.557 884.230 C 738.904 884, 735.342 883.715, 733.807 882.325 C 732.087 880.769, 732 875.757, 732 778.045 C 732 699.543, 732.282 675.118, 733.200 674.200 C 734.975 672.425, 745.467 672.653, 747 674.500 C 748.090 675.814, 759.844 676, 841.658 676 C 925.964 676, 935.311 676.157, 937.535 677.615 L 940 679.230 940 703.058 L 940 726.887 943 728.659 L 946 730.431 946 777.061 C 946 822.420, 946.054 823.739, 948 825.500 C 949.938 827.254, 950 828.580, 950 868.251 C 950 908.038, 950.058 909.273, 952.068 912.096 L 954.136 915 970.533 915 C 985.720 915, 987.006 914.857, 987.965 913.066 C 990.096 909.083, 989.055 906.827, 981.500 899.063 L 974 891.356 974 850.333 C 974 810.580, 973.938 809.254, 972 807.500 C 970.032 805.719, 970 804.420, 970 726.564 L 970 647.437 964.221 641.719 L 958.442 636 937.388 636 L 916.335 636 913.167 632.059 L 910 628.117 910 579.302 L 910 530.487 881.924 502.493 L 853.848 474.500 854.510 440.500 L 855.172 406.500 846.586 398.022 L 838 389.544 838 368.899 L 838 348.254 890 297.010 L 942 245.765 942 220.501 L 942 195.237 945.500 192.568 L 949 189.898 949 177.883 C 949 171.275, 948.534 164.998, 947.965 163.934 C 946.982 162.097, 945.608 162, 920.620 162 C 896.401 162, 894.178 162.145, 892.655 163.829 M 1219.455 645.455 C 1218.105 646.805, 1217 648.605, 1217 649.455 C 1217 650.821, 1212.695 651, 1179.892 651 L 1142.784 651 1132.392 660.623 L 1122 670.247 1122 727.949 L 1122 785.651 1119.421 788.076 C 1118.002 789.409, 1115.189 790.964, 1113.171 791.532 C 1109.733 792.499, 1109.500 792.816, 1109.500 796.532 C 1109.500 800.122, 1109.808 800.600, 1112.730 801.544 C 1114.507 802.119, 1117.320 803.890, 1118.980 805.481 L 1122 808.374 1122 872.801 L 1122 937.228 1127 943 L 1132 948.772 1132 962.767 L 1132 976.763 1128.500 979.432 C 1124.905 982.174, 1124.201 984.639, 1126.035 988.066 C 1127.283 990.396, 1131.769 990.642, 1134.559 988.532 C 1137.617 986.218, 1138.789 986.646, 1145.470 992.511 L 1151.748 998.023 1235.124 997.630 C 1280.981 997.413, 1320.808 996.918, 1323.628 996.530 C 1327.519 995.994, 1329.051 995.273, 1329.977 993.543 C 1331.702 990.320, 1330.906 987.561, 1328.138 987.167 C 1324.014 986.581, 1321.050 987.950, 1318.746 991.508 L 1316.500 994.975 1235.086 994.988 L 1153.672 995 1146.921 989 C 1143.208 985.700, 1139.280 983, 1138.192 983 C 1137.104 983, 1135.941 982.288, 1135.607 981.418 C 1135.273 980.548, 1135 972.397, 1135 963.304 L 1135 946.772 1130 941 L 1125 935.228 1125 870.301 L 1125 805.374 1122 802.500 C 1119.919 800.507, 1119 798.668, 1119 796.500 C 1119 794.332, 1119.919 792.493, 1122 790.500 L 1125 787.626 1125 729.951 L 1125 672.277 1134.903 663.138 L 1144.807 654 1185.403 654 C 1224.667 654, 1226.066 653.934, 1228 652 C 1230.237 649.763, 1230.621 646.021, 1228.800 644.200 C 1226.782 642.182, 1222.098 642.811, 1219.455 645.455 M 472.174 829.314 C 470.022 831.606, 470 832.004, 470 869.102 L 470 906.575 465 911.500 L 460 916.425 460 943.973 L 460 971.521 477.750 989.173 L 495.500 1006.826 505.760 1007.522 C 518.539 1008.388, 521 1007.307, 521 1000.830 C 521 997.582, 520.242 995.781, 517.433 992.353 C 513.919 988.064, 513.774 988, 507.645 988 C 501.541 988, 501.337 987.910, 496.712 983.216 L 492 978.431 492 967.278 L 492 956.124 487.500 952.893 L 483 949.661 483 938.980 L 483 928.300 489 923.081 L 495 917.863 495 875.382 C 495 823.516, 495.853 827, 483.149 827 C 475.243 827, 474.128 827.235, 472.174 829.314 M 83.687 1278.805 L 81 1281.609 81 1349.919 L 81 1418.229 96.531 1434.517 L 112.063 1450.806 112.382 1538.219 L 112.701 1625.633 115.350 1630.155 L 118 1634.676 118 1660.369 C 118 1682.391, 118.216 1686.146, 119.514 1686.644 C 120.765 1687.124, 120.916 1688.563, 120.386 1694.926 L 119.744 1702.626 125.230 1707.313 L 130.716 1712 165.987 1712 L 201.259 1712 219.629 1694.389 L 238 1676.779 238 1662.089 C 238 1651.998, 238.376 1647.024, 239.200 1646.200 C 240.079 1645.321, 248.266 1645, 269.796 1645 L 299.193 1645 305.596 1650.622 L 312 1656.244 312 1719.250 L 312 1782.255 317 1789 L 322 1795.745 322.021 1843.122 L 322.042 1890.500 349.500 1919 L 376.958 1947.500 376.979 1977.389 L 377 2007.279 382.155 2006.668 C 385.230 2006.304, 388.781 2005.038, 390.958 2003.529 L 394.608 2001 476.603 2001 L 558.598 2001 578.977 2022.500 C 595.739 2040.185, 599.835 2044, 602.062 2044 C 604.256 2044, 607.649 2047.026, 620 2060 L 635.232 2076 656.383 2076 L 677.534 2076 688.267 2065.234 L 699 2054.467 699.041 2020.484 L 699.082 1986.500 727.291 1957.806 L 755.500 1929.112 766 1928.481 L 776.500 1927.850 778.348 1930.995 C 780.064 1933.915, 780.144 1935.818, 779.464 1957.641 L 778.732 1981.142 782.569 1985.071 L 786.406 1989 805.646 1989 C 829.022 1989, 828.012 1989.632, 827.978 1975.027 L 827.957 1965.500 818.500 1955 L 809.043 1944.500 808.999 1927.500 L 808.955 1910.500 789.311 1889.750 L 769.667 1869 729.698 1869 L 689.729 1869 681.468 1861.500 L 673.207 1854 636.104 1854 C 600.333 1854, 598.928 1854.072, 597 1856 C 595.900 1857.100, 595.007 1859.237, 595.015 1860.750 C 595.048 1866.674, 593.833 1866.473, 631.621 1866.800 L 666.316 1867.099 674.441 1874.475 L 682.565 1881.851 697.862 1882.925 C 706.275 1883.516, 713.622 1884, 714.188 1884 C 714.884 1884, 714.990 1892.479, 714.516 1910.250 L 713.815 1936.500 694.408 1956.009 L 675 1975.518 675 1998.587 L 675 2021.656 669.250 2026.323 C 663.532 2030.964, 663.458 2030.990, 655.896 2030.995 C 649.207 2030.999, 647.974 2030.705, 645.646 2028.548 C 644.137 2027.150, 643 2025.015, 643 2023.583 C 643 2022.122, 642.190 2020.637, 641.066 2020.035 C 639.994 2019.461, 632.818 2019, 624.965 2019 L 610.799 2019 603.400 2012.377 L 596 2005.755 596 1993.282 C 596 1982.453, 595.739 1980.442, 594.020 1978.028 L 592.039 1975.246 566.536 1974.511 L 541.034 1973.775 525.408 1957.388 L 509.782 1941 458.016 1941 L 406.249 1941 376.624 1910.619 L 347 1880.239 347 1831.332 L 347 1782.425 342 1777.500 L 337 1772.575 337 1708.959 L 337 1645.343 323.456 1632.922 L 309.913 1620.500 270.206 1620 L 230.500 1619.500 222.250 1626.873 L 214 1634.246 214 1649.389 L 214 1664.533 202.734 1675.766 L 191.469 1687 176.734 1687 L 162 1687 162 1676.380 L 162 1665.760 152 1655 L 142 1644.240 142 1633.587 C 142 1624.206, 141.701 1622.344, 139.500 1618 L 137 1613.066 137 1527.412 L 137 1441.757 122.130 1426.128 L 107.260 1410.500 106.523 1385.251 L 105.785 1360.001 119.393 1345.631 C 132.105 1332.207, 133 1331.004, 133 1327.347 C 133 1323.926, 132.305 1322.745, 127.500 1318 L 122 1312.568 122 1295.810 L 122 1279.051 119.050 1277.526 C 116.793 1276.359, 112.603 1276, 101.237 1276 L 86.374 1276 83.687 1278.805 M 978.329 1304.775 C 975.961 1306.282, 975.787 1310.656, 977.921 1315.072 C 979.846 1319.057, 980 1321.122, 980 1342.988 L 980 1366.600 1010.848 1397.300 C 1037.271 1423.597, 1042.112 1427.995, 1044.598 1427.968 C 1048.453 1427.926, 1051 1425.855, 1051 1422.762 C 1051 1418.510, 1048.538 1417.322, 1043.487 1419.139 L 1039.176 1420.689 1011.088 1392.588 L 983 1364.487 983 1341.704 C 983 1320.894, 983.173 1318.581, 985 1315 C 987.812 1309.487, 987.626 1306.189, 984.435 1304.975 C 981.390 1303.817, 979.911 1303.769, 978.329 1304.775 M 518.750 1346.717 C 517.132 1348.512, 517 1352.489, 517 1399.598 L 517 1450.538 526.768 1460.269 L 536.536 1470 566.645 1470 C 589.537 1470, 597.004 1469.700, 597.794 1468.748 C 598.365 1468.060, 599.151 1462.748, 599.540 1456.944 L 600.247 1446.392 597.659 1444.696 C 595.425 1443.232, 592.082 1443, 573.256 1443 L 551.442 1443 545.313 1436.750 L 539.185 1430.500 538.476 1418 C 538.063 1410.697, 537.193 1404.377, 536.384 1402.800 C 535.623 1401.314, 535 1397.761, 535 1394.903 C 535 1390.125, 535.361 1389.321, 539.500 1384.897 C 541.975 1382.251, 544 1379.236, 544 1378.198 C 544 1375.806, 541.050 1373.107, 537.357 1372.122 L 534.500 1371.359 534.219 1359.777 C 534.015 1351.343, 533.558 1347.878, 532.538 1347.032 C 531.768 1346.393, 528.745 1345.624, 525.819 1345.324 C 521.389 1344.869, 520.208 1345.102, 518.750 1346.717 M 829.667 1726.667 C 829.300 1727.033, 829 1728.578, 829 1730.099 C 829 1732.790, 833.212 1737, 835.904 1737 C 836.673 1737, 837 1745.612, 837 1765.878 C 837 1790.327, 837.230 1794.946, 838.500 1796 C 839.325 1796.685, 840 1798.546, 840 1800.137 C 840 1802.327, 840.789 1803.511, 843.250 1805.011 C 845.038 1806.101, 847.190 1806.994, 848.034 1806.996 C 848.878 1806.998, 851.915 1809.377, 854.784 1812.281 L 860 1817.563 860 1827.548 L 860 1837.533 871.500 1849 L 883 1860.467 883 1892.988 L 883 1925.509 925.500 1968 L 968 2010.491 968 2049.027 L 968 2087.563 973.779 2093.281 L 979.558 2099 988.042 2099 C 995.685 2099, 996.624 2099.208, 997.513 2101.103 C 1000.256 2106.948, 1009.160 2107.399, 1009.817 2101.727 C 1010.398 2096.713, 1008.464 2096, 994.287 2096 L 981.432 2096 976.216 2090.719 L 971 2085.437 971 2046.964 L 971 2008.491 928.500 1966 L 886 1923.509 886 1890.988 L 886 1858.467 874.500 1847 L 863 1835.533 863 1825.482 L 863 1815.432 857.500 1810 C 854.079 1806.622, 852 1803.720, 852 1802.323 C 852 1799.533, 848.672 1796.298, 843.750 1794.303 L 840 1792.783 840 1761.938 C 840 1727.009, 839.832 1726, 834.006 1726 C 831.986 1726, 830.033 1726.300, 829.667 1726.667" stroke="none" fill="#ff0000" fill-rule="evenodd"/><path d="M 988.687 230.805 L 986 233.609 986 290.805 C 986 340.978, 986.184 348, 987.500 348 C 988.325 348, 989 348.450, 989 349 C 989 350.506, 1015.283 350.317, 1016.800 348.800 C 1017.700 347.900, 1018 335.468, 1018 299.008 L 1018 250.416 1022.500 246 C 1026.575 242.001, 1027 241.137, 1027 236.860 C 1027 232.787, 1026.600 231.851, 1024.096 230.068 C 1021.472 228.200, 1019.752 228, 1006.283 228 L 991.374 228 988.687 230.805 M 721 250.500 L 716.584 255 493.042 255.009 L 269.500 255.017 255.500 267.506 L 241.500 279.996 176.488 279.998 L 111.476 280 96.113 295.387 L 80.751 310.773 81.500 703.887 L 82.249 1097 87.974 1097 L 93.698 1097 99.697 1089.873 L 105.696 1082.746 106.431 701.692 L 107.166 320.637 114.115 312.940 L 121.065 305.244 187.005 304.500 L 252.946 303.756 263.693 291.878 L 274.440 280 502.008 280 L 729.575 280 734.500 275 L 739.425 270 763.278 270 C 778.771 270, 787.855 269.613, 789.195 268.896 C 791.141 267.854, 791.218 267.243, 790.551 258.154 C 790.162 252.854, 789.374 247.951, 788.799 247.258 C 788.001 246.296, 780.412 246, 756.586 246 L 725.416 246 721 250.500 M 1136.221 664.786 L 1126.943 673.500 1126.999 777.500 L 1127.054 881.500 1136.213 891.750 L 1145.373 902 1151.745 902 C 1157.404 902, 1158.559 902.355, 1162.059 905.167 C 1165.939 908.286, 1166 908.439, 1166 915.026 L 1166 921.717 1176.250 930.850 L 1186.500 939.983 1200.356 939.992 L 1214.212 940 1218 943 L 1221.788 946 1237.101 946 L 1252.414 946 1266.535 932 L 1280.655 918 1299.605 918 C 1321.131 918, 1323 917.485, 1323 911.558 C 1323 905.476, 1321.072 905, 1296.414 905 L 1274.757 905 1260 919 L 1245.243 933 1235.837 933 C 1226.447 933, 1226.428 932.995, 1224.659 930 L 1222.887 927 1207.670 927 L 1192.453 927 1184.727 919.228 L 1177 911.456 1177 905.947 C 1177 900.557, 1176.875 900.315, 1171.250 894.825 C 1165.925 889.627, 1165.057 889.161, 1159.501 888.503 C 1154.265 887.884, 1152.692 887.139, 1147.143 882.647 L 1140.784 877.500 1141.230 869.699 C 1141.673 861.940, 1141.700 861.873, 1146.478 857.022 L 1151.281 852.146 1150.540 768.647 C 1149.833 689.014, 1149.883 685.006, 1151.615 682.074 L 1153.431 679 1177.216 679 C 1191.185 679, 1201 679.383, 1201 679.929 C 1201 682.478, 1204.378 684, 1210.036 684 C 1217.475 684, 1218 683.141, 1218 670.970 C 1218 663.311, 1217.661 661.332, 1215.932 658.904 L 1213.864 656 1179.682 656.036 L 1145.500 656.072 1136.221 664.786 M 333.035 1079.934 C 332.407 1081.108, 332 1090.985, 332 1105.056 L 332 1128.244 349.117 1146.122 L 366.234 1164 375.035 1164 L 383.837 1164 385.918 1160.632 C 387.775 1157.628, 388 1155.707, 388 1142.869 L 388 1128.473 374 1114.500 L 360 1100.527 360 1092.214 C 360 1086.718, 359.483 1082.901, 358.474 1080.950 L 356.949 1078 345.510 1078 C 335.223 1078, 333.966 1078.195, 333.035 1079.934 M 211.218 1146.787 L 198.937 1158.500 198.968 1165.651 L 199 1172.802 204.886 1177.901 C 210.651 1182.896, 210.903 1183, 217.211 1183 C 222.788 1183, 223.966 1182.665, 226 1180.500 L 228.349 1178 252.500 1178 C 283.475 1178, 281 1179.879, 281 1156.360 C 281 1133.029, 283.856 1134.989, 249.936 1135.037 L 223.500 1135.074 211.218 1146.787" stroke="none" fill="#ff00ff" fill-rule="evenodd"/><path d="M 646.216 110.281 C 641.293 115.266, 641 115.851, 641 120.688 C 641 125.614, 641.195 125.977, 646 130 L 651 134.186 651 152.659 C 651 163.480, 651.429 171.933, 652.035 173.066 C 652.952 174.778, 654.206 175, 662.978 175 C 676.408 175, 675.993 175.699, 676.022 153.027 C 676.042 137.172, 676.231 135.262, 678 133 C 679.600 130.954, 679.960 128.892, 679.978 121.644 C 679.999 113.243, 679.841 112.588, 676.916 108.894 L 673.832 105 662.632 105 L 651.432 105 646.216 110.281 M 292.655 174.829 C 291.361 176.259, 291 178.718, 291 186.116 L 291 195.575 295.784 200.288 L 300.569 205 318.051 205 L 335.533 205 347 216.500 L 358.467 228 444.167 228 L 529.866 228 533.554 223.500 L 537.241 219 558.552 219 L 579.864 219 581.932 216.096 C 583.843 213.412, 584 211.791, 584 194.751 C 584 178.156, 583.817 176.144, 582.171 174.655 C 580.606 173.239, 577.633 173, 561.550 173 L 542.758 173 530 185 L 517.242 197 440.355 197 L 363.469 197 351.500 185 L 339.531 173 316.921 173 C 296.286 173, 294.165 173.160, 292.655 174.829 M 534 225 L 529.814 230 393.157 230.012 L 256.500 230.023 243 242.500 L 229.500 254.977 164.869 254.988 L 100.237 255 78.119 277.877 L 56 300.754 56 770.638 L 56 1240.522 72.761 1257.261 L 89.521 1274 102.827 1274 C 115.641 1274, 116.261 1274.097, 119.567 1276.619 L 123 1279.237 123 1295.900 L 123 1312.563 129 1318.500 C 134.299 1323.744, 135 1324.894, 135 1328.349 C 135 1332.002, 134.103 1333.209, 121.500 1346.518 L 108 1360.775 108 1385.797 L 108 1410.820 115.363 1417.410 L 122.726 1424 129.264 1424 L 135.802 1424 140.901 1418.114 C 145.966 1412.268, 146 1412.182, 146 1405.367 L 146 1398.505 141 1393.909 L 136 1389.312 136.037 1378.906 L 136.074 1368.500 147.521 1355.500 L 158.967 1342.500 158.984 1328.469 L 159 1314.437 153 1308.500 L 147 1302.563 147 1285.893 L 147 1269.223 136.120 1259.111 L 125.240 1249 112.350 1249 L 99.460 1249 90.230 1239.731 L 81 1230.462 81 769.969 L 81 309.476 96.262 294.238 L 111.523 279 176.012 278.998 L 240.500 278.996 254.500 266.506 L 268.500 254.017 424.595 254.009 C 574.541 254, 580.755 253.928, 582.345 252.171 C 583.706 250.668, 584 248.039, 584 237.394 C 584 218.695, 585.835 220, 559.536 220 L 538.186 220 534 225 M 56.021 1338.250 L 56.043 1429.500 71.500 1446 L 86.957 1462.500 86.979 1517.021 L 87 1571.542 78 1580.500 L 69 1589.458 69.055 1659.479 L 69.111 1729.500 120.259 1781.750 L 171.406 1834 195.016 1834 L 218.626 1834 221.500 1831 L 224.374 1828 238.437 1828.007 L 252.500 1828.014 254.750 1831.319 C 256.981 1834.596, 257 1834.931, 257.013 1871.062 L 257.026 1907.500 263 1914.500 L 268.974 1921.500 268.987 1952.693 C 269.002 1989.789, 267.889 1987, 282.687 1987 C 290.801 1987, 292.056 1986.764, 292.965 1985.066 C 293.639 1983.805, 294 1965.423, 294 1932.287 L 294 1881.442 287.500 1875 L 281 1868.558 281 1856.361 C 281 1849.652, 281.273 1843.452, 281.607 1842.582 C 281.987 1841.593, 283.420 1841, 285.433 1841 C 287.504 1841, 289.426 1840.175, 290.826 1838.686 C 292.744 1836.643, 293 1835.249, 293 1826.841 C 293 1816.166, 291.884 1814, 286.384 1814 C 284.156 1814, 282.207 1812.764, 278.500 1809 L 273.575 1804 244.538 1804.031 L 215.500 1804.062 211.500 1806.526 C 207.806 1808.802, 206.545 1808.989, 195 1808.979 L 182.500 1808.968 137.750 1763.569 L 93 1718.170 93.027 1660.335 L 93.055 1602.500 102.027 1591.522 L 111 1580.543 111 1516.009 L 111 1451.476 95.500 1436 L 80 1420.524 80 1343.874 L 80 1267.223 69.120 1257.111 C 63.136 1251.550, 57.736 1247, 57.120 1247 C 56.301 1247, 56.006 1271.557, 56.021 1338.250 M 202.607 1290.582 C 202.273 1291.452, 202 1295.555, 202 1299.699 L 202 1307.235 209.106 1315.118 L 216.212 1323 247.725 1323 L 279.238 1323 327.119 1370.127 L 375 1417.255 375 1459.508 L 375 1501.762 399.877 1525.881 L 424.754 1550 547.483 1550 L 670.212 1550 674 1547 L 677.788 1544 719.263 1544 L 760.739 1544 781.870 1565.888 L 803 1587.776 803 1670.708 L 803 1753.639 807 1759 L 811 1764.361 811 1787.447 L 811 1810.533 822.395 1821.895 L 833.789 1833.257 834.502 1840.864 L 835.215 1848.470 846.107 1860.115 L 857 1871.759 857 1904.261 L 857 1936.762 899.500 1978.506 L 942 2020.249 942 2030.589 C 942 2043.063, 941.935 2043, 954.779 2043 C 967.154 2043, 967 2043.229, 967 2024.790 L 967 2010.238 924.500 1968.494 L 882 1926.751 882 1894.255 L 882 1861.759 871.125 1850.130 L 860.249 1838.500 859.538 1831.397 L 858.827 1824.294 847.413 1812.914 L 836 1801.533 836 1777.475 L 836 1753.416 831.410 1748.958 L 826.820 1744.500 827.538 1660.499 L 828.255 1576.498 798.747 1547.749 L 769.238 1519 719.037 1519 L 668.837 1519 664.565 1522.500 L 660.294 1526 548.525 1526 L 436.755 1526 417.878 1507.883 L 399 1489.765 399 1448.759 L 399 1407.752 344.878 1352.876 L 290.755 1298 262.998 1298 L 235.241 1298 231.554 1293.500 L 227.866 1289 215.540 1289 C 205.223 1289, 203.115 1289.258, 202.607 1290.582 M 1235.655 1874.829 C 1233.119 1877.631, 1233.255 1896.016, 1235.829 1898.345 C 1237.432 1899.796, 1240.795 1899.996, 1263.079 1899.965 C 1283.232 1899.936, 1289.018 1899.633, 1291 1898.500 C 1292.624 1897.572, 1296.551 1897.058, 1302.208 1897.035 L 1310.916 1897 1315.121 1901 C 1318.888 1904.583, 1319.851 1905, 1324.375 1905 C 1328.903 1905, 1329.841 1904.593, 1333.462 1901.060 C 1337.412 1897.205, 1337.684 1897.111, 1345.983 1896.694 L 1354.465 1896.269 1359.824 1900.635 C 1364.795 1904.683, 1365.609 1905, 1371.050 1905 C 1376.912 1905, 1376.917 1904.997, 1379.458 1900.662 C 1382.524 1895.431, 1382.669 1891.819, 1379.989 1887.482 C 1377.834 1883.995, 1375.649 1883.035, 1369.815 1883.014 C 1364.780 1882.995, 1361.111 1884.535, 1357.188 1888.311 C 1354.103 1891.281, 1353.428 1891.489, 1347.349 1891.340 C 1342.514 1891.222, 1340.261 1890.687, 1338.661 1889.275 C 1333.957 1885.126, 1331.074 1884, 1325.157 1884 C 1318.618 1884, 1313.447 1885.744, 1310.575 1888.917 C 1309.027 1890.628, 1307.507 1891, 1302.074 1891 L 1295.458 1891 1286.500 1882 L 1277.542 1873 1257.426 1873 C 1239.208 1873, 1237.154 1873.173, 1235.655 1874.829 M 1292.559 1899.532 C 1290.966 1900.737, 1285.887 1901, 1264.258 1901 L 1237.898 1901 1236.449 1904.468 C 1235.529 1906.670, 1235 1911.402, 1235 1917.433 C 1235 1925.799, 1235.230 1927.053, 1236.934 1927.965 C 1238.092 1928.584, 1247.307 1929, 1259.875 1929 L 1280.881 1929 1285.097 1924 L 1289.313 1919 1298.768 1919 L 1308.222 1919 1313 1915 C 1317.487 1911.243, 1318.169 1911, 1324.208 1911 C 1330.150 1911, 1331.046 1911.304, 1336 1915 C 1340.713 1918.516, 1342.017 1919, 1346.787 1919 C 1351.339 1919, 1352.839 1918.504, 1356.106 1915.916 C 1360.692 1912.284, 1361.208 1908.691, 1357.911 1903.355 C 1355.214 1898.992, 1353.231 1898, 1347.207 1898 C 1342.885 1898, 1341.725 1898.490, 1337.737 1902 C 1333.207 1905.988, 1333.168 1906, 1324.799 1906 L 1316.406 1906 1312.500 1902 C 1308.664 1898.072, 1308.467 1898.001, 1301.547 1898.032 C 1296.942 1898.053, 1293.827 1898.572, 1292.559 1899.532" stroke="none" fill="#2404fc" fill-rule="evenodd"/><path d="M 27.111 19.880 L 17 30.760 17.001 217.130 C 17.002 319.634, 16.305 813.988, 15.453 1315.696 L 13.904 2227.892 15.955 2231.913 C 17.084 2234.124, 19.018 2236.456, 20.253 2237.094 C 21.489 2237.732, 24.447 2240.448, 26.828 2243.127 L 31.155 2248 706.967 2248 L 1382.779 2248 1400.389 2229.629 L 1418 2211.259 1418 1124.457 L 1418 37.655 1403.795 23.327 L 1389.589 9 713.406 9 L 37.223 9 27.111 19.880 M 58.386 42.285 C 55.348 44.032, 48.599 52.140, 47.028 55.932 C 44.472 62.103, 50.278 74.906, 57.165 78.285 C 66.433 82.833, 77.397 81.101, 82.610 74.267 C 85.007 71.124, 85.437 69.502, 85.823 62.147 C 86.359 51.938, 84.899 48.423, 78.262 43.944 C 74.489 41.398, 72.994 41.005, 67.200 41.035 C 63.515 41.055, 59.549 41.617, 58.386 42.285 M 386.170 43.807 C 380.293 47.807, 378.812 50.981, 378.232 60.825 L 377.741 69.150 383.765 75.008 C 393.435 84.412, 402.065 85.276, 410.857 77.719 C 416.721 72.678, 416.887 72.370, 417.634 65.225 C 418.351 58.364, 416.957 53.133, 413.091 48.181 C 409.434 43.496, 405.824 41.900, 397.633 41.345 C 390.988 40.894, 390.204 41.062, 386.170 43.807 M 1319 42.366 C 1311.695 43.686, 1310 44.476, 1310 46.559 C 1310 47.352, 1309.358 48, 1308.573 48 C 1307.787 48, 1306.212 49.186, 1305.073 50.635 C 1300.725 56.162, 1303.354 71.391, 1309.503 76.296 C 1318.910 83.799, 1333.909 83.983, 1337.670 76.642 C 1338.555 74.914, 1339.589 73.275, 1339.968 73 C 1341.165 72.131, 1344.185 65.638, 1345.085 62 C 1346.556 56.050, 1345.196 52.195, 1339.788 46.983 C 1333.340 40.768, 1330.876 40.221, 1319 42.366 M 486.500 43.869 C 485.400 44.237, 482.835 45.573, 480.801 46.838 C 477.797 48.705, 476.798 50.182, 475.485 54.699 C 473.164 62.682, 474.127 66.644, 479.939 73.033 C 484.450 77.991, 485.085 78.343, 490.326 78.777 C 497.865 79.402, 499.712 78.765, 505.250 73.625 L 510 69.217 510 62.174 C 510 52.715, 509.052 50.734, 502.529 46.562 C 496.925 42.977, 491.759 42.109, 486.500 43.869 M 719.607 52.582 C 719.273 53.452, 719 70.640, 719 90.778 L 719 127.392 721.636 131.196 C 724.071 134.709, 724.640 135, 729.085 135 C 733.368 135, 734.179 134.632, 736.449 131.656 L 739 128.311 739 90.816 L 739 53.321 736.453 52.161 C 735.052 51.522, 730.825 51, 727.060 51 C 721.740 51, 720.079 51.353, 719.607 52.582 M 1116.750 56.217 C 1114.680 58.808, 1114.590 60.225, 1116.213 64.714 C 1117.584 68.504, 1120.150 69.570, 1125.494 68.567 C 1129.564 67.804, 1131 65.628, 1131 60.226 C 1131 57.012, 1130.549 56.116, 1128.453 55.161 C 1124.225 53.234, 1118.738 53.729, 1116.750 56.217 M 217.301 65.082 C 214.742 66.722, 213.968 68.033, 213.426 71.647 C 212.611 77.080, 214.034 80.240, 218.555 83.034 C 223.236 85.927, 227.270 85.576, 230.885 81.961 C 238.828 74.018, 233.931 62.958, 222.500 63.022 C 221.400 63.029, 219.061 63.956, 217.301 65.082 M 395 75 C 395.825 75.533, 397.625 75.969, 399 75.969 C 400.375 75.969, 402.175 75.533, 403 75 C 404.068 74.310, 402.916 74.031, 399 74.031 C 395.084 74.031, 393.932 74.310, 395 75 M 646.216 110.281 C 641.293 115.266, 641 115.851, 641 120.688 C 641 125.614, 641.195 125.977, 646 130 L 651 134.186 651 152.659 C 651 163.480, 651.429 171.933, 652.035 173.066 C 652.952 174.778, 654.206 175, 662.978 175 C 676.408 175, 675.993 175.699, 676.022 153.027 C 676.042 137.172, 676.231 135.262, 678 133 C 679.600 130.954, 679.960 128.892, 679.978 121.644 C 679.999 113.243, 679.841 112.588, 676.916 108.894 L 673.832 105 662.632 105 L 651.432 105 646.216 110.281 M 786.450 105.934 C 784.772 106.245, 782.072 107.476, 780.450 108.668 C 777.577 110.780, 777.491 111.095, 777.161 120.755 L 776.823 130.673 779.988 133.337 C 781.729 134.801, 784.177 136, 785.428 136 C 788.958 136, 794.300 133.909, 796.438 131.691 L 798.376 129.680 799.810 131.840 C 800.776 133.295, 802.264 133.995, 804.372 133.984 C 806.863 133.972, 809.177 132.430, 815.734 126.413 L 823.968 118.857 863.234 119.741 C 906.196 120.707, 905.309 120.808, 904.744 115 L 904.500 112.500 862.500 112.420 C 825.054 112.349, 820.148 112.156, 817.249 110.644 C 811.759 107.780, 804.916 106.939, 799.251 108.434 C 794.492 109.689, 794.087 109.642, 791.858 107.565 C 790.091 105.918, 788.736 105.509, 786.450 105.934 M 64.500 114.661 C 58.273 115.995, 54.293 118.402, 51.115 122.756 C 46.352 129.281, 45.838 132.066, 46.798 146.157 C 47.763 160.312, 49.080 163.870, 55.164 168.750 C 59.247 172.024, 63.193 172.781, 72.500 172.074 C 78.990 171.580, 86.582 163.984, 87.381 157.184 C 88.982 143.563, 89.072 139.532, 87.931 132.342 C 86.548 123.627, 84.953 120.944, 78.683 116.784 C 74.629 114.094, 70.223 113.434, 64.500 114.661 M 1140.500 146.419 C 1137.750 148.278, 1132.013 153.632, 1127.750 158.317 L 1120 166.834 1120 174.298 C 1120 181.594, 1120.076 181.820, 1123.359 184.325 C 1127.422 187.423, 1129.770 187.009, 1132.743 182.670 C 1134.484 180.130, 1134.814 178.630, 1134.313 175.541 C 1133.681 171.649, 1133.723 171.589, 1142.910 163.065 C 1151.049 155.514, 1152.205 154.017, 1152.680 150.416 C 1153.193 146.529, 1153.049 146.251, 1149.708 144.666 C 1147.777 143.750, 1146.041 143.008, 1145.849 143.019 C 1145.657 143.029, 1143.250 144.559, 1140.500 146.419 M 132.717 150.841 C 129.551 152.728, 128.723 155.011, 129.180 160.589 C 129.468 164.092, 129.954 164.713, 133.973 166.707 C 141.058 170.223, 144.997 168.655, 146.994 161.522 C 148.361 156.640, 147.837 152.980, 145.427 150.570 C 143.379 148.522, 136.358 148.672, 132.717 150.841 M 891.200 162.200 C 890.326 163.074, 890 170.745, 890 190.454 L 890 217.507 838.246 269.254 L 786.493 321 716.877 321 L 647.262 321 627.138 341.882 L 607.014 362.763 560.691 363.502 C 519.690 364.157, 514.020 364.062, 511.346 362.679 L 508.324 361.116 507.664 333.308 C 507.301 318.014, 507.003 301.174, 507.002 295.886 L 507 286.272 510.804 283.636 L 514.608 281 623.091 281 L 731.575 281 736.500 276 L 741.425 271 765.677 271 C 794.159 271, 792 272.087, 792 257.740 C 792 243.135, 794.242 244, 756.394 244 L 725.416 244 721 248.500 L 716.584 253 652.947 253 C 592.566 253, 589.225 252.906, 587.655 251.171 C 586.177 249.538, 586 245.332, 586 211.826 C 586 176.751, 585.881 174.202, 584.171 172.655 C 582.595 171.229, 579.519 171, 561.906 171 L 541.469 171 529.500 183 L 517.531 195 441 195 L 364.469 195 352.500 183 L 340.531 171 315.900 171 C 284.679 171, 286 170.366, 286 185.357 L 286 195.568 291.250 200.691 L 296.500 205.813 315.990 206.531 L 335.480 207.250 342.740 213.747 C 349.466 219.768, 350 220.540, 350 224.256 L 350 228.266 302.750 227.559 L 255.500 226.852 243.015 239.426 L 230.530 252 163.506 252 L 96.483 252 75.241 273.259 L 54 294.517 54 865.135 L 54 1435.752 69.500 1450.484 L 85 1465.216 85 1517.879 L 85 1570.542 76 1579.500 L 67 1588.458 67.012 1658.979 L 67.023 1729.500 118.762 1782.834 L 170.500 1836.168 195.500 1835.484 C 220.066 1834.811, 220.544 1834.758, 223.055 1832.400 C 225.476 1830.126, 226.277 1830, 238.370 1830 C 245.389 1830, 252.002 1830.466, 253.066 1831.035 C 254.650 1831.883, 255 1833.162, 255 1838.101 C 255 1846.382, 253.965 1848, 248.665 1848 C 246.319 1848, 243.860 1848.540, 243.200 1849.200 C 241.594 1850.806, 241.542 1879.901, 243.139 1883.406 C 244.105 1885.526, 245.053 1885.950, 249.389 1886.203 L 254.500 1886.500 254.782 1897.061 L 255.064 1907.621 261.532 1914.032 L 268 1920.442 268 1952.502 L 268 1984.563 274 1990.500 L 280 1996.437 280 2011.996 C 280 2033.648, 281.923 2032, 256.664 2032 L 236.442 2032 230 2025.500 C 223.604 2019.047, 223.518 2019, 217.979 2019 C 214.910 2019, 211.860 2019.540, 211.200 2020.200 C 210.410 2020.990, 210 2025.206, 210 2032.526 C 210 2049.087, 207.632 2048, 243.714 2048 L 272.799 2048 286.917 2062.878 L 301.036 2077.756 362.268 2078.499 L 423.500 2079.242 427.144 2082.121 L 430.788 2085 477.017 2085 L 523.246 2085 546.018 2107.017 C 567.225 2127.521, 568.849 2129.342, 569.645 2133.510 C 570.414 2137.535, 572.668 2140.309, 591.981 2160.993 L 613.461 2184 686.022 2184 L 758.584 2184 763 2188.500 C 767.145 2192.724, 767.745 2193, 772.774 2193 C 781.950 2193, 782 2192.918, 782 2177.965 L 782 2165 805.500 2165 L 829 2165 829 2154.129 L 829 2143.257 840.250 2142.534 C 846.438 2142.136, 852.063 2141.348, 852.750 2140.783 C 854.383 2139.440, 854.383 2130.366, 852.750 2129.309 C 852.063 2128.864, 847.225 2128.050, 842 2127.500 L 832.500 2126.500 831.646 2117.250 L 830.792 2108 826.646 2108.032 C 820.798 2108.077, 819 2109.764, 819 2115.205 C 819 2123.648, 826.501 2123, 728.739 2123 L 642.136 2123 640.068 2120.096 C 638.453 2117.827, 638 2115.665, 638 2110.218 L 638 2103.246 665.750 2102.539 L 693.500 2101.833 711.500 2084.013 L 729.500 2066.194 737.493 2065.489 C 744.202 2064.897, 746.073 2064.318, 749.147 2061.884 L 752.809 2058.983 753.524 2048.484 L 754.240 2037.985 759.120 2033.900 L 764 2029.814 764 2003.006 L 764 1976.198 769.886 1971.099 C 773.123 1968.295, 776.273 1966, 776.886 1966 C 777.609 1966, 778 1968.733, 778 1973.797 C 778 1981.505, 778.043 1981.637, 781.792 1985.297 L 785.584 1989 804.745 1989 C 817.156 1989, 824.803 1988.591, 826.453 1987.839 C 828.969 1986.693, 829 1986.540, 829 1975.070 L 829 1963.460 819.500 1954 L 810 1944.540 809.979 1927.520 L 809.959 1910.500 790.397 1889.871 L 770.836 1869.242 741.544 1868.510 L 712.252 1867.777 697.889 1853.389 L 683.526 1839 608.713 1839 C 543.609 1839, 533.518 1838.802, 530.950 1837.474 L 528 1835.949 528 1821.573 L 528 1807.198 533.886 1802.099 L 539.772 1797 571.421 1797 C 598.871 1797, 603.397 1797.214, 605.535 1798.615 C 606.974 1799.558, 608 1801.189, 608 1802.533 C 608 1809.158, 612.623 1809.915, 620 1804.500 L 624.768 1801 679.031 1801 L 733.294 1801 737.565 1797.500 L 741.837 1794 760.453 1794 C 785.222 1794, 784 1793.183, 784 1809.735 L 784 1822.241 794.896 1833.888 L 805.791 1845.536 806.531 1852.518 L 807.271 1859.500 818.015 1871 L 828.758 1882.500 829.506 1914.500 L 830.254 1946.500 872.127 1989.126 L 914 2031.752 914 2058.917 C 914 2085.291, 914.064 2086.167, 916.188 2089.040 L 918.376 2092 940.452 2092 L 962.529 2092 975.371 2104.871 L 988.213 2117.741 998.697 2118.444 C 1008.996 2119.134, 1009.251 2119.098, 1013.091 2116.437 L 1017 2113.728 1016.978 2097.114 C 1016.949 2075.379, 1017.746 2076.451, 1000.525 2074.988 C 990.625 2074.146, 986.773 2073.405, 984.275 2071.861 L 981 2069.837 981.022 2044.668 C 981.042 2021.784, 981.211 2019.283, 982.884 2017.107 C 986.307 2012.656, 988.998 2014.512, 1009.230 2035.277 L 1027.959 2054.500 1027.997 2060 L 1028.034 2065.500 1046.267 2084.841 L 1064.500 2104.182 1154.140 2103.461 L 1243.780 2102.740 1244.477 2106.864 C 1245.506 2112.956, 1248.506 2114.655, 1259.795 2115.538 L 1269.042 2116.261 1278.644 2126.631 L 1288.247 2137 1298.056 2137 L 1307.866 2137 1311.554 2141.500 L 1315.241 2146 1324.536 2146 L 1333.832 2146 1337 2142 L 1340.168 2138 1347.522 2138 L 1354.876 2138 1358.107 2142.500 L 1361.339 2147 1377.549 2147 L 1393.759 2147 1397.380 2142.582 L 1401 2138.163 1401 2119.784 L 1401 2101.405 1397.250 2096.232 L 1393.500 2091.059 1377.172 2091.029 L 1360.843 2091 1356.984 2094.898 C 1353.868 2098.046, 1352.143 2098.930, 1348.012 2099.498 C 1343.420 2100.130, 1342.482 2099.913, 1338.814 2097.371 C 1336.568 2095.815, 1334.233 2093.744, 1333.625 2092.771 C 1332.724 2091.328, 1331.106 2091, 1324.885 2091 C 1318.577 2091, 1316.466 2091.439, 1312.722 2093.532 C 1310.231 2094.924, 1307.644 2096.724, 1306.974 2097.532 C 1304.771 2100.186, 1298.477 2099.358, 1294.535 2095.896 C 1291.326 2093.079, 1291 2092.306, 1291 2087.507 C 1291 2083.899, 1291.574 2081.513, 1292.807 2079.990 C 1294.508 2077.890, 1295.096 2077.800, 1302.742 2078.477 C 1310.033 2079.123, 1311.279 2079.547, 1314.844 2082.598 C 1318.357 2085.606, 1319.480 2086, 1324.525 2086 C 1329.472 2086, 1330.867 2085.534, 1335 2082.500 C 1339.082 2079.503, 1340.539 2079.006, 1345.134 2079.044 C 1352.310 2079.102, 1360.220 2081.863, 1361.487 2084.750 C 1362.450 2086.946, 1362.852 2087, 1378.170 2087 L 1393.866 2087 1397.433 2082.647 L 1401 2078.294 1401 2008.459 L 1401 1938.624 1398.750 1935.319 L 1396.500 1932.014 1386.500 1932.039 C 1379.287 1932.057, 1375.959 1932.473, 1374.559 1933.532 C 1371.392 1935.927, 1367.151 1935.237, 1360.631 1931.265 C 1355.354 1928.050, 1353.499 1927.478, 1347.308 1927.158 C 1340.787 1926.822, 1339.580 1927.077, 1334.380 1929.894 C 1327.073 1933.851, 1321.932 1933.998, 1316.636 1930.399 C 1313.588 1928.327, 1311.203 1927.688, 1304.923 1927.257 C 1297.763 1926.766, 1296.715 1926.937, 1293.532 1929.108 C 1291.585 1930.437, 1289.356 1933.172, 1288.517 1935.263 C 1287.647 1937.428, 1285.624 1939.868, 1283.753 1941.009 C 1280.668 1942.890, 1278.635 1942.993, 1244.414 1942.996 L 1208.328 1943 1206.673 1937.047 C 1203.861 1926.932, 1200.424 1925.299, 1184.094 1926.317 L 1174.500 1926.915 1169.500 1932.423 C 1166.750 1935.453, 1162.950 1939.072, 1161.056 1940.466 L 1157.611 1943 1105.111 1943 L 1052.611 1943 1026.306 1916.331 L 1000 1889.662 1000 1847.331 L 1000 1805 1007.777 1805 L 1015.554 1805 1022.427 1811.926 L 1029.300 1818.853 1028.659 1824.992 C 1027.653 1834.613, 1030.193 1837.949, 1038.554 1837.986 C 1040.717 1837.996, 1042.592 1839.015, 1044.980 1841.480 L 1048.353 1844.959 1091.426 1845.327 C 1120.509 1845.576, 1136.828 1846.112, 1141.667 1846.977 L 1148.834 1848.259 1149.492 1853.929 C 1150.062 1858.842, 1150.907 1860.559, 1155.823 1866.799 L 1161.497 1874 1183.592 1874 L 1205.688 1874 1210.500 1868 L 1215.312 1862 1250.228 1862 L 1285.144 1862 1289.449 1864.523 C 1293.187 1866.714, 1294.486 1866.960, 1299.302 1866.394 C 1304.612 1865.770, 1305.037 1865.896, 1309.252 1869.350 C 1314.911 1873.987, 1319.808 1876, 1325.431 1876 C 1330.881 1876, 1339.905 1872.647, 1342.106 1869.804 C 1344.433 1866.800, 1351.375 1868.037, 1358.083 1872.651 L 1363.225 1876.188 1371.363 1875.491 C 1377.021 1875.006, 1380.109 1874.247, 1381.500 1873 C 1382.816 1871.820, 1385.984 1870.965, 1390.765 1870.500 C 1396.545 1869.938, 1398.334 1869.361, 1399.515 1867.674 C 1400.804 1865.835, 1401 1852.352, 1401 1765.469 C 1401 1686.935, 1400.731 1665.032, 1399.750 1663.754 C 1397.880 1661.318, 1391.687 1660.467, 1390.063 1662.424 C 1389 1663.705, 1386.413 1664, 1376.231 1664 L 1363.706 1664 1359.603 1660.648 C 1356.099 1657.785, 1354.437 1657.192, 1348.220 1656.584 C 1340.989 1655.878, 1340.909 1655.896, 1336.086 1659.437 C 1331.581 1662.744, 1330.713 1663, 1324.010 1663 C 1317.494 1663, 1316.418 1662.707, 1313 1660 L 1309.212 1657 1283.477 1657 L 1257.742 1657 1238.487 1638.500 L 1219.232 1620 1208.116 1620 L 1197 1620 1196.952 1613.750 C 1196.926 1610.313, 1196.523 1599.934, 1196.057 1590.687 C 1195.321 1576.088, 1194.965 1573.689, 1193.355 1572.469 C 1191.140 1570.791, 1187.599 1570.609, 1184.934 1572.035 C 1183.113 1573.010, 1183 1574.341, 1183 1594.914 L 1183 1616.757 1188.409 1621.379 L 1193.819 1626 1206.170 1626 L 1218.520 1626 1236.760 1644.260 L 1255 1662.520 1255 1668.605 C 1255 1677.885, 1255.249 1678, 1275.329 1678 C 1289.481 1678, 1292 1678.227, 1292 1679.500 C 1292 1680.777, 1289.353 1681, 1274.174 1681 C 1256.834 1681, 1256.289 1680.937, 1254.174 1678.686 C 1252.445 1676.845, 1252 1675.154, 1252 1670.425 L 1252 1664.479 1234.240 1646.740 L 1216.480 1629 1205.240 1629 L 1194 1629 1194 1636.500 L 1194 1644 1208.766 1644 L 1223.533 1644 1234.709 1655.250 L 1245.886 1666.500 1246.570 1672.734 C 1247.207 1678.532, 1247.555 1679.214, 1251.546 1682.484 L 1255.837 1686 1273.418 1686 C 1288.380 1686, 1291 1686.224, 1291 1687.500 C 1291 1688.780, 1288.265 1689, 1272.389 1689 L 1253.778 1689 1249.020 1685.017 C 1244.515 1681.245, 1244.225 1680.700, 1243.574 1674.767 L 1242.886 1668.500 1232.210 1657.750 L 1221.534 1647 1207.767 1647 L 1194 1647 1194 1664.535 C 1194 1688.305, 1192.992 1687, 1211.357 1687 L 1225.485 1687 1249.242 1710.742 L 1273 1734.484 1273 1741.542 C 1273 1745.698, 1272.507 1749.093, 1271.800 1749.800 C 1270.896 1750.704, 1257.151 1751, 1216.079 1751 L 1161.558 1751 1155.779 1745.281 L 1150 1739.563 1150 1721.593 C 1150 1704.604, 1149.877 1703.443, 1147.750 1700.319 L 1145.500 1697.014 1132.950 1697.007 C 1124.531 1697.002, 1120.005 1696.605, 1119.200 1695.800 C 1118.318 1694.918, 1118 1686.324, 1118 1663.357 C 1118 1632.204, 1117.994 1632.109, 1115.777 1630.557 C 1112.756 1628.440, 1108.023 1628.635, 1105 1631 C 1102.698 1632.801, 1100.799 1632.957, 1080.975 1632.978 L 1059.450 1633 1051.975 1625.476 L 1044.500 1617.953 1044.180 1590.615 L 1043.859 1563.278 1039.430 1558.931 L 1035 1554.584 1035 1500.035 L 1035 1445.486 1007.743 1418.243 L 980.487 1391 967.970 1391 L 955.453 1391 947.727 1383.228 L 940 1375.456 940 1369.463 L 940 1363.471 927.236 1350.736 C 915.715 1339.240, 914.129 1338, 910.944 1338 C 908.110 1338, 906.589 1337.157, 903.208 1333.712 L 899 1329.424 899 1321.335 L 899 1313.245 891.600 1306.623 L 884.201 1300 867.838 1300 L 851.475 1300 836.500 1285 L 821.525 1270 769.966 1270 L 718.407 1270 635.703 1187.155 L 553 1104.311 553 1095.620 C 553 1084.934, 551.756 1082.535, 545.715 1081.574 C 542.774 1081.106, 540.367 1079.799, 537.750 1077.249 C 534.147 1073.737, 534 1073.330, 534 1066.832 C 534 1058.533, 535.286 1057.445, 543.871 1058.476 C 549.178 1059.114, 549.915 1059.562, 556.750 1066.301 L 564 1073.450 564 1086.475 L 564 1099.500 643.918 1178.750 L 723.835 1258 775.180 1258 L 826.524 1258 842 1273.500 L 857.476 1289 942.574 1289 C 989.378 1289, 1046.580 1289.297, 1069.690 1289.660 L 1111.708 1290.321 1125.604 1303.129 C 1136.995 1313.628, 1139.680 1316.635, 1140.500 1319.808 C 1141.959 1325.457, 1146.747 1330.774, 1151 1331.470 C 1155.492 1332.205, 1156.934 1331.184, 1157.651 1326.761 C 1158.332 1322.567, 1155.707 1318.101, 1152.500 1317.999 C 1151.379 1317.963, 1145.997 1313.577, 1140.250 1308.016 L 1130 1298.097 1130 1286.163 C 1130 1274.583, 1130.073 1274.182, 1132.465 1272.615 C 1134.289 1271.420, 1137.356 1271, 1144.268 1271 C 1153.129 1271, 1153.821 1270.842, 1157.803 1267.913 C 1163.153 1263.979, 1163.401 1260.750, 1158.702 1256.196 C 1155.791 1253.375, 1154.749 1253, 1149.806 1253 L 1144.208 1253 1143.477 1238.387 C 1142.882 1226.476, 1143.001 1223.613, 1144.123 1222.903 C 1144.881 1222.423, 1148.240 1222.024, 1151.589 1222.015 C 1157.107 1222.001, 1157.786 1221.765, 1158.818 1219.500 C 1159.445 1218.125, 1160.417 1217, 1160.979 1217 C 1161.584 1217, 1162 1213.925, 1162 1209.460 C 1162 1203.271, 1161.608 1201.388, 1159.812 1198.960 L 1157.624 1196 1146.537 1196 L 1135.450 1196 1128.225 1203.274 L 1121 1210.547 1121 1229.142 L 1121 1247.737 1112.925 1254.705 L 1104.849 1261.672 1017.175 1262.335 C 968.954 1262.700, 915.833 1262.999, 899.128 1262.999 L 868.756 1263 852 1247 L 835.244 1231 784.863 1231 L 734.482 1231 662.241 1159.864 L 590 1088.727 590 1074.488 L 590 1060.248 574.614 1045.624 L 559.227 1031 539.497 1031 L 519.768 1031 512.884 1024.897 C 507.043 1019.718, 506 1018.303, 506 1015.552 C 506 1010.970, 508.594 1009, 514.629 1009 C 517.363 1009, 520.140 1008.460, 520.800 1007.800 C 521.491 1007.109, 522 1003.801, 522 1000.003 C 522 993.684, 521.840 993.250, 518.208 989.703 C 514.713 986.290, 513.959 986, 508.592 986 C 503.484 986, 502.167 985.559, 497.884 982.415 L 493 978.830 493 967.415 L 493 956 498.800 956 C 501.990 956, 505.140 956.540, 505.800 957.200 C 506.540 957.940, 507 961.570, 507 966.665 C 507 976.443, 508.011 977.564, 515.788 976.415 C 520.040 975.787, 521.646 974.648, 532.250 964.747 L 544 953.775 544 866.131 L 544 778.486 571.257 751.243 L 598.513 724 609.036 724 L 619.558 724 625.779 717.723 L 632 711.446 632 691.897 C 632 672.756, 632.048 672.303, 634.314 670.174 C 636.575 668.051, 637.270 668, 664.142 668 L 691.656 668 696.323 662.250 L 700.990 656.500 700.995 641.958 L 701 627.416 696.712 623.208 L 692.424 619 678.415 619 L 664.406 619 660.703 615.208 C 657.085 611.503, 657 611.240, 657 603.759 C 657 596.183, 657.037 596.073, 660.500 593.432 C 663.386 591.231, 664 590.115, 664 587.069 C 664 580.318, 655.027 576.257, 651.615 581.465 C 650.305 583.465, 650 586.840, 650 599.366 L 650 614.802 655.886 619.901 C 661.673 624.914, 661.882 625, 668.318 625 C 674.402 625, 675.010 625.205, 676.932 627.904 C 678.603 630.251, 679 632.325, 679 638.708 C 679 646.331, 678.885 646.720, 675.702 649.804 L 672.405 653 649.612 653 L 626.819 653 621.409 657.621 C 616.166 662.101, 616 662.401, 616 667.375 L 616 672.508 568 720.500 L 520 768.492 520 789.189 C 520 813.723, 520.352 813, 508.412 813 C 502.701 813, 500.742 812.585, 498.635 810.927 L 496 808.855 496 705.807 L 496 602.760 529.500 568.507 L 563 534.255 563 466.720 L 563 399.186 567.889 395.093 L 572.778 391 598.771 391 L 624.764 391 645 370 L 665.236 349 733.868 349.032 C 789.352 349.058, 802.835 349.318, 804.250 350.392 C 805.828 351.590, 806 353.990, 806 374.752 L 806 397.784 815.025 406.023 L 824.051 414.263 823.775 429.381 L 823.500 444.500 816.798 445 C 813.112 445.275, 809.562 446.035, 808.909 446.689 C 808.038 447.561, 807.777 455.749, 807.925 477.505 L 808.128 507.132 802.479 513.566 L 796.831 520 714.603 520 L 632.374 520 629.530 517.032 L 626.686 514.063 627.593 491.113 C 628.462 469.130, 628.602 468.025, 630.914 464.900 L 633.328 461.638 630.905 457.069 C 628.345 452.241, 627.418 451.947, 621.737 454.172 C 618.171 455.568, 617.364 458.954, 619.392 464.021 C 620.717 467.332, 621 472.364, 621 492.579 L 621 517.117 624.039 520.899 L 627.079 524.682 713.789 525.291 L 800.500 525.900 810.250 516.219 L 820 506.538 820.015 500.519 C 820.033 493.549, 820.560 492.399, 824.152 491.498 C 828.210 490.479, 831.781 492.940, 841.310 503.322 L 850 512.788 850 521.894 L 850 531 836.903 531 L 823.807 531 810.403 543.646 L 797 556.292 797 563.413 L 797 570.534 786.234 581.267 L 775.467 592 765.349 592 C 752.140 592, 752 591.824, 752 575.178 L 752 563.285 744.090 556.142 C 736.631 549.408, 735.910 549, 731.450 549 C 725.955 549, 724.081 550.722, 724.032 555.816 C 723.972 562.074, 725.190 563, 733.484 563 C 740.716 563, 740.961 563.082, 743.449 566.344 C 745.829 569.464, 746 570.432, 746 580.760 L 746 591.832 749.894 594.916 C 753.768 597.984, 753.850 598, 766.129 598 L 778.470 598 790.235 586.266 L 802 574.531 802 567.389 L 802 560.247 814.389 548.624 L 826.779 537 852.305 537 L 877.832 537 880.916 540.894 L 884 544.788 884 588.720 L 884 632.651 881.686 634.826 L 879.371 637 820.898 637 L 762.425 637 757.500 642 L 752.575 647 734.438 647 L 716.300 647 711.150 652.921 L 706 658.842 706 788.337 L 706 917.832 709.894 920.916 C 713.456 923.737, 714.423 924, 721.239 924 C 730.842 924, 732 925.100, 732 934.218 L 732 940.779 713.500 958.513 L 695 976.248 695 1025.502 L 695 1074.756 701.404 1080.378 L 707.807 1086 743.704 1086 C 770.290 1086, 779.911 1086.311, 780.800 1087.200 C 781.681 1088.081, 782 1096.536, 782 1119.013 L 782 1149.626 784.805 1152.313 L 787.609 1155 806.077 1155 L 824.544 1155 833 1163.500 L 841.456 1172 997.449 1172 L 1153.442 1172 1159.221 1177.719 L 1165 1183.437 1165 1225.173 L 1165 1266.908 1160.356 1270.454 C 1155.792 1273.939, 1155.548 1274.001, 1146.106 1274.032 C 1133.112 1274.075, 1133 1274.181, 1133 1286.459 C 1133 1296.064, 1133.043 1296.237, 1136.106 1299.099 L 1139.212 1302 1158.871 1302 L 1178.531 1302 1190.266 1290.235 L 1202 1278.470 1202 1225.622 L 1202 1172.775 1188.376 1158.387 L 1174.752 1144 1102.376 1144 C 1041.539 1144, 1030 1143.780, 1030 1142.621 C 1030 1141.863, 1047.550 1124.033, 1069 1103 L 1108 1064.757 1108 1043.763 L 1108 1022.768 1104.500 1018 C 1101.381 1013.751, 1101 1012.551, 1101 1006.974 C 1101 1001.025, 1100.783 1000.461, 1096.599 995.564 C 1092.711 991.013, 1092.116 989.662, 1091.493 983.957 C 1091.105 980.406, 1090.607 916.966, 1090.386 842.979 L 1089.986 708.459 1075.993 694.493 L 1062 680.527 1062 665.263 C 1062 651.333, 1061.825 649.825, 1060 648 C 1058.076 646.076, 1055.768 645.528, 1051.500 645.982 C 1047.507 646.407, 1047 647.832, 1047 658.622 C 1047 671.184, 1046.382 671.522, 1039 663 L 1033.802 657 1009.601 657 C 992.111 657, 985.067 657.333, 984.200 658.200 C 981.974 660.426, 982.759 667.818, 985.619 671.567 L 988.237 675 1007.664 675 L 1027.091 675 1029.675 677.584 C 1031.981 679.890, 1032.195 680.707, 1031.664 685.190 C 1030.783 692.625, 1030.197 693, 1019.446 693 C 1010.243 693, 1010.112 692.966, 1008 690 C 1005.886 687.032, 1005.765 687, 996.479 687 C 991.271 687, 985.913 687.538, 984.441 688.209 C 982.009 689.317, 981.830 689.795, 982.294 693.919 C 982.720 697.692, 983.505 699.028, 987.151 702.180 L 991.500 705.940 1016.406 705.970 L 1041.311 706 1044.656 708.551 C 1051.223 713.560, 1050.598 713.698, 1017.778 714.505 L 987.556 715.249 981.778 720.274 L 976 725.300 976 731.615 C 976 736.610, 976.366 738.123, 977.750 738.854 C 978.712 739.363, 989.742 740.109, 1002.260 740.512 L 1025.019 741.245 1028.900 745.880 C 1032.573 750.267, 1032.820 750.995, 1033.522 759.507 L 1034.263 768.500 1040.012 775 L 1045.760 781.500 1046.508 873.336 L 1047.255 965.172 1042.722 969.836 L 1038.189 974.500 1037.480 991 L 1036.771 1007.500 1033.493 1012 C 1030.442 1016.188, 1030.165 1017.240, 1029.492 1027.184 C 1028.433 1042.861, 1029.103 1042.452, 1005.792 1041.602 C 995.509 1041.226, 986.919 1041.324, 986.173 1041.823 C 985.133 1042.521, 985.001 1045.009, 985.561 1053.375 L 986.276 1064.038 993.138 1070.122 L 1000 1076.206 1000 1083.429 C 1000 1089.811, 999.713 1090.921, 997.537 1092.965 C 995.190 1095.170, 994.612 1095.247, 985.287 1094.599 C 976.265 1093.971, 975.325 1093.706, 973.255 1091.209 L 971.010 1088.500 971.005 1047.969 L 971 1007.437 976.750 1001.812 L 982.500 996.186 1000 995.470 L 1017.500 994.755 1023.250 989.779 L 1029 984.802 1029 970.785 L 1029 956.768 1025.500 952 C 1022.406 947.786, 1022 946.526, 1022 941.151 C 1022 933.987, 1020.926 933, 1013.133 933 C 1009.064 933, 1008.020 933.361, 1007.519 934.940 C 1007.126 936.179, 1005.819 936.993, 1003.906 937.190 C 1001.448 937.444, 995.884 942.716, 972.972 966.500 L 945.034 995.500 945.017 1035.513 L 945 1075.527 931.093 1089.407 C 917.862 1102.613, 917.032 1103.256, 914.009 1102.652 C 908.308 1101.512, 905.310 1098.554, 904.521 1093.292 C 903.907 1089.198, 902.739 1087.382, 895.905 1079.896 L 888 1071.237 888 1032.006 L 888 992.775 908.500 971.807 L 929 950.839 929 940.804 L 929 930.768 935.103 923.884 L 941.206 917 962.648 917 C 984.081 917, 984.092 916.999, 986.545 914.545 C 990.923 910.168, 989.985 906.634, 982.023 897.500 L 975.048 889.500 975.024 848.872 C 975.003 813.999, 974.788 808.069, 973.500 807 C 972.190 805.913, 972 795.965, 972 728.621 C 972 684.365, 971.606 650.112, 971.075 648.262 C 970.566 646.488, 968.246 642.779, 965.919 640.018 L 961.687 635 940.040 635 L 918.392 635 915.196 631.702 L 912 628.405 912 587.321 L 912 546.237 915.433 543.619 L 918.867 541 958.029 541 C 1005.930 541, 1003 541.786, 1003 528.939 C 1003 518.148, 1002.066 517, 993.286 517 C 984.208 517, 984.398 517.614, 983.526 485.482 C 982.923 463.249, 982.521 458.192, 981.242 456.750 C 979.977 455.324, 977.996 455, 970.541 455 C 961.505 455, 961.353 455.041, 958.196 458.298 L 955 461.595 955 489.298 L 955 517 938.124 517 L 921.249 517 896.624 491.618 L 872 466.236 872 430.007 L 872 393.778 867.907 388.889 L 863.814 384 853.062 384 C 838.485 384, 839 384.705, 839 364.764 L 839 349.186 891 297.923 L 943 246.661 943 221.915 L 943 197.168 947 194 L 951 190.832 951 177.276 C 951 165.539, 950.765 163.542, 949.250 162.392 C 946.843 160.565, 893.013 160.387, 891.200 162.200 M 1312.500 190 L 1303.500 197.971 1249 197.950 C 1203.617 197.933, 1194.082 197.690, 1192 196.500 C 1190.625 195.714, 1186.945 195.055, 1183.821 195.035 C 1176.596 194.990, 1175 196.444, 1175 203.071 L 1175 208 1180.845 208 C 1185.420 208, 1187.083 207.565, 1188.500 206 C 1190.273 204.041, 1191.580 204, 1252.155 204 C 1306.462 204, 1314 204.183, 1314 205.500 C 1314 206.817, 1306.573 207, 1253.155 207 C 1193.580 207, 1192.272 207.042, 1190.500 209 C 1189.026 210.629, 1187.420 211, 1181.845 211 L 1175 211 1175 215.500 C 1175 218.760, 1174.412 220.588, 1172.867 222.133 C 1170.818 224.182, 1170.151 224.241, 1156.117 223.616 L 1141.500 222.964 1115.250 248.170 L 1089 273.375 1089 287.513 C 1089 306.416, 1088.598 306, 1106.850 306 C 1125.011 306, 1125 306.008, 1125 292.624 L 1125 282.478 1141.761 265.739 L 1158.521 249 1170.178 249 L 1181.835 249 1183.508 253.381 C 1185.127 257.621, 1188.060 260, 1191.666 260 C 1192.531 260, 1197.572 256.004, 1202.869 251.121 L 1212.500 242.241 1273.719 241.495 L 1334.939 240.749 1340.855 245.874 L 1346.772 251 1356.267 251 L 1365.763 251 1368.381 247.567 L 1371 244.133 1371 215.971 C 1371 189.103, 1370.905 187.675, 1368.932 184.904 L 1366.864 182 1344.182 182.015 L 1321.500 182.029 1312.500 190 M 988.294 230.250 L 985.196 233.500 984.545 290.500 C 984.186 321.850, 984.255 348, 984.697 348.610 C 987.076 351.899, 991.977 353, 1004.235 353 L 1016.569 353 1018.393 349.912 C 1020.119 346.990, 1020.178 344.249, 1019.481 299.098 L 1018.744 251.373 1024.246 246.672 C 1028.811 242.773, 1029.863 241.256, 1030.420 237.774 C 1031.054 233.811, 1030.880 233.395, 1027.296 230.326 L 1023.500 227.075 1007.446 227.038 L 991.392 227 988.294 230.250 M 1339.500 258.482 L 1334.500 262.923 1277.491 262.962 C 1221.585 262.999, 1220.457 263.039, 1219.232 265 C 1218.070 266.861, 1216.900 267, 1202.446 267 C 1187.207 267, 1186.861 266.952, 1184.409 264.500 C 1182.431 262.522, 1180.898 262, 1177.068 262 L 1172.227 262 1171.578 266.326 C 1170.908 270.797, 1171.564 273.959, 1173.427 275.235 C 1174.017 275.639, 1184.400 275.974, 1196.500 275.980 L 1218.500 275.991 1223 273 L 1227.500 270.009 1267.059 270.004 C 1310.614 270, 1311.629 270.129, 1309.232 275.390 L 1308.043 278 1267.759 278 L 1227.474 278 1213.237 292.263 C 1200.837 304.685, 1199 306.939, 1199 309.737 C 1199 312.277, 1199.613 313.265, 1201.929 314.463 C 1207.381 317.282, 1209.670 315.856, 1226.097 299.403 L 1241.476 284 1274.156 284 C 1292.130 284, 1307.548 284.273, 1308.418 284.607 C 1311.034 285.611, 1310.376 289.907, 1307.435 291.025 C 1305.998 291.571, 1292.977 292, 1277.824 292 L 1250.779 292 1230.890 311.131 L 1211 330.262 1211 358.681 C 1211 380.619, 1210.691 387.715, 1209.643 389.800 C 1206.985 395.087, 1206.852 398.965, 1209.186 403.117 C 1211.526 407.281, 1214.163 408.029, 1219.435 406.025 C 1221.843 405.109, 1222 404.631, 1222 398.216 C 1222 393.755, 1221.490 390.708, 1220.532 389.441 C 1219.327 387.848, 1219.062 382.744, 1219.056 361 L 1219.048 334.500 1236.211 316.250 L 1253.374 298 1281.687 298 L 1310 298 1310 301.412 C 1310 304.645, 1309.778 304.862, 1305.767 305.539 C 1302.341 306.118, 1299.863 307.782, 1292.767 314.267 L 1284 322.280 1284 433.067 L 1284 543.854 1280.365 546.851 C 1276.397 550.121, 1273.480 558.040, 1275.100 561.145 C 1276.052 562.970, 1281.050 565, 1284.593 565 C 1290.122 565, 1289.872 570.680, 1289.935 443.615 L 1289.994 326.500 1296.247 320.783 L 1302.500 315.067 1309.054 315.033 C 1315.250 315.002, 1315.793 315.191, 1319 318.500 C 1322.314 321.919, 1322.574 322, 1330.307 322 C 1338.031 322, 1338.335 321.907, 1342.861 318.131 C 1347.248 314.471, 1347.988 314.221, 1356.500 313.520 C 1362.937 312.990, 1366.283 312.222, 1368.250 310.822 L 1371 308.864 1370.986 285.682 C 1370.979 272.932, 1370.729 261.591, 1370.430 260.481 C 1370.132 259.370, 1368.422 257.458, 1366.632 256.231 C 1363.823 254.306, 1362.082 254.003, 1353.938 254.021 L 1344.500 254.041 1339.500 258.482 M 264.178 292.257 L 252.855 304.761 187.428 305.505 C 139.126 306.054, 122 306.550, 122 307.401 C 122 308.035, 118.850 311.680, 115 315.500 L 108 322.446 108 648.658 L 108 974.870 111.979 977.685 L 115.957 980.500 115.979 1011.361 L 116 1042.222 112 1047 L 108 1051.778 107.989 1068.139 L 107.979 1084.500 101.751 1091.750 L 95.524 1099 89.797 1099 C 85.159 1099, 83.874 1099.368, 83.035 1100.934 C 82.353 1102.209, 82 1124.458, 82 1166.204 L 82 1229.540 91.269 1238.770 L 100.538 1248 113.368 1248 L 126.198 1248 137.099 1258.137 L 148 1268.274 148 1284.418 L 148 1300.563 154 1306.500 L 160 1312.437 160 1327.850 L 160 1343.264 148.500 1355.521 L 137 1367.779 137 1378.330 L 137 1388.881 142 1393.097 L 147 1397.313 147 1407.073 L 147 1416.832 143 1420 L 139 1423.168 139 1511.533 L 139 1599.898 142.308 1602.421 C 145.567 1604.907, 146.080 1604.967, 177.484 1606.507 L 209.353 1608.070 213.426 1604.131 C 217.301 1600.385, 217.902 1600.158, 225.711 1599.495 C 230.227 1599.112, 234.340 1598.282, 234.851 1597.649 C 235.361 1597.017, 236.103 1590.114, 236.499 1582.308 C 237.179 1568.903, 237.103 1567.954, 235.134 1565.188 C 233.106 1562.340, 232.744 1562.241, 221.792 1561.531 L 210.535 1560.801 191.514 1542.526 L 172.492 1524.250 157.246 1523.512 L 142 1522.774 142 1516.387 L 142 1510 155.750 1510.027 L 169.500 1510.055 191 1531 L 212.500 1551.945 231.290 1551.973 C 249.028 1551.998, 250.247 1552.123, 253.040 1554.188 L 256 1556.376 256 1576.620 L 256 1596.864 258.904 1598.932 C 261.677 1600.906, 263.099 1601, 290.280 1601 L 318.752 1601 336.255 1619.258 L 353.758 1637.517 354.504 1701.673 L 355.250 1765.829 359.625 1770.123 L 364 1774.416 364 1823.966 L 364 1873.515 388.757 1898.258 L 413.515 1923 464.369 1923 L 515.222 1923 520 1919 C 524.590 1915.157, 527.777 1914.210, 531.418 1915.607 C 532.742 1916.115, 533 1918.219, 533 1928.496 L 533 1940.777 543.880 1950.889 L 554.760 1961 566.225 1961 C 581.026 1961, 581 1961.025, 581 1947.253 C 581 1941.704, 581.273 1936.452, 581.607 1935.582 C 582.546 1933.136, 590.614 1933.410, 591.965 1935.934 C 592.534 1936.998, 593 1943.706, 593 1950.840 L 593 1963.811 605 1975.041 L 617 1986.272 617 1999.136 L 617 2012 635.443 2012 C 653.368 2012, 653.930 2011.938, 655.443 2009.777 C 656.720 2007.955, 657 2004.126, 657 1988.480 L 657 1969.406 653.250 1965.809 C 649.704 1962.408, 649.023 1962.174, 640.750 1961.516 L 632 1960.820 632.032 1948.160 C 632.069 1933.421, 632.659 1932, 638.742 1932 C 642.147 1932, 643.164 1932.526, 645.381 1935.433 C 646.822 1937.322, 648 1939.936, 648 1941.242 C 648 1942.970, 650.809 1946.230, 658.289 1953.187 C 668.482 1962.665, 668.637 1962.762, 674.806 1963.477 L 681.033 1964.200 697.017 1948.984 L 713 1933.768 713 1910.369 L 713 1886.971 709.750 1884.989 C 706.950 1883.282, 704.695 1883.007, 693.475 1883.004 L 680.450 1883 673 1875.500 L 665.550 1868 630.450 1868 L 595.349 1868 590.075 1861.500 L 584.802 1855 564.561 1855 L 544.321 1855 543.161 1857.547 C 542.522 1858.948, 542 1863.048, 542 1866.658 C 542 1872.854, 542.225 1873.491, 546 1878 C 549.514 1882.197, 550 1883.394, 550 1887.854 C 550 1895.135, 546.749 1896.588, 537.493 1893.446 C 532.068 1891.604, 529.480 1892.205, 527.631 1895.735 C 526.882 1897.163, 522.722 1901.407, 518.385 1905.165 C 511.833 1910.842, 509.900 1911.997, 506.950 1911.998 C 504.997 1911.999, 502.860 1911.460, 502.200 1910.800 C 501.346 1909.946, 501 1903.806, 501 1889.529 L 501 1869.458 510 1860.500 L 519 1851.542 519 1825.996 L 519 1800.450 526.274 1793.225 L 533.547 1786 631.034 1786 L 728.521 1786 745.761 1768.740 L 763 1751.479 763 1735.416 L 763 1719.352 759.500 1714.429 C 757.575 1711.722, 756 1708.586, 756 1707.461 C 756 1706.337, 758.025 1703.429, 760.500 1701 C 764.620 1696.957, 765 1696.170, 765 1691.686 C 765 1685.355, 760.479 1679, 755.975 1679 C 754.404 1679, 752.840 1678.550, 752.500 1678 C 752.160 1677.450, 750.327 1677, 748.426 1677 C 745.601 1677, 744.609 1677.593, 742.989 1680.250 C 740.621 1684.134, 740.462 1686, 742.500 1686 C 743.767 1686, 744 1688.333, 744 1701 L 744 1716 740.730 1716 C 737.931 1716, 736.100 1717.366, 728 1725.500 L 718.540 1735 704.148 1735 L 689.757 1735 675.129 1721.127 L 660.500 1707.254 632.768 1706.514 L 605.035 1705.773 592.161 1717.887 L 579.287 1730 571.540 1730 L 563.793 1730 555.532 1737.500 L 547.271 1745 519.254 1745 L 491.237 1745 488.568 1741.500 L 485.898 1738 471.317 1738 L 456.736 1738 444.479 1726.500 C 433.778 1716.461, 431.787 1715, 428.799 1715 C 426.166 1715, 424.871 1714.317, 423.188 1712.040 C 421.241 1709.407, 421 1707.837, 421 1697.773 L 421 1686.466 410 1675.500 L 399 1664.534 399 1616.510 L 399 1568.487 371 1540.500 L 343 1512.513 343 1470.877 L 343 1429.241 338.582 1425.620 L 334.163 1422 323.198 1422 L 312.232 1422 289.194 1399 L 266.155 1376 232.299 1376 L 198.442 1376 192 1382.500 C 185.608 1388.949, 185.514 1389, 179.994 1389 C 172.265 1389, 171 1386.798, 171 1373.336 C 171 1364.224, 171.170 1363.369, 173.250 1361.991 C 175.094 1360.769, 181.047 1360.445, 206.250 1360.197 L 237 1359.893 237 1355.447 C 237 1351.882, 236.653 1350.998, 235.250 1350.990 C 234.287 1350.985, 227.016 1350.515, 219.091 1349.947 L 204.683 1348.914 189.341 1334.333 L 174 1319.752 174 1278.740 L 174 1237.729 154 1216.975 L 134 1196.222 134 1176.852 L 134 1157.483 123.520 1145.491 L 113.040 1133.500 113.020 1117.492 L 113 1101.484 136.758 1077.742 L 160.515 1054 169.378 1054 L 178.242 1054 191.249 1041.766 L 204.256 1029.532 203.536 995.016 L 202.817 960.500 217.286 947.215 L 231.755 933.931 232.498 852.715 L 233.242 771.500 236.121 767.856 L 239 764.212 239 749.319 L 239 734.425 234 729.500 C 229.100 724.673, 229 724.455, 228.990 718.538 C 228.982 713.171, 228.599 712.020, 225.542 708.175 C 222.120 703.871, 222.112 703.834, 223.737 700.425 L 225.370 697 239.935 697.015 C 247.946 697.024, 255.035 697.371, 255.690 697.787 C 256.344 698.203, 257.019 701.009, 257.190 704.022 L 257.500 709.500 360.167 710.377 L 462.834 711.255 465.917 709.059 L 469 706.864 469 647.131 L 469 587.398 481.250 575.413 C 487.988 568.822, 503.343 553.889, 515.372 542.229 L 537.245 521.029 536.513 501.515 L 535.781 482 507.594 482 L 479.406 482 475.500 478 L 471.594 474 428.178 474 L 384.762 474 379.002 477.499 L 373.242 480.998 372.497 527.214 L 371.751 573.429 376.478 577.530 L 381.205 581.631 380.470 589.566 C 379.735 597.491, 379.727 597.508, 373.685 604.339 L 367.636 611.178 351.850 610.462 L 336.064 609.747 330.146 614.874 L 324.228 620 313.213 620 L 302.198 620 297.117 625.865 L 292.036 631.730 276.418 632.456 L 260.800 633.182 257.900 630.404 C 255.262 627.876, 255 627.018, 255 620.885 L 255 614.144 249.250 613.464 C 246.088 613.091, 241.925 612.477, 240 612.101 L 236.500 611.417 235.634 603.045 L 234.767 594.673 239.102 591.086 C 247.999 583.726, 247.897 583.875, 249.021 576.500 L 250.088 569.500 262.544 556.986 L 275 544.472 275 504.479 L 275 464.486 302 437.500 C 316.850 422.658, 329 410, 329 409.371 C 329 408.555, 320.776 408.047, 300.250 407.596 C 284.438 407.248, 253.357 406.537, 231.183 406.015 L 190.866 405.066 182.475 397.448 C 174.642 390.337, 174.123 389.620, 174.667 386.665 C 174.987 384.924, 176.106 382.600, 177.152 381.500 C 179.028 379.528, 180.545 379.496, 283.844 379.215 L 388.632 378.931 396.894 372.088 L 405.156 365.245 452.614 364.503 C 494.355 363.851, 500.301 363.565, 501.971 362.131 C 503.750 360.603, 503.911 358.162, 504.509 323.500 L 505.148 286.500 502.824 283.822 L 500.500 281.144 388 280.449 L 275.500 279.753 264.178 292.257 M 1319.250 328.218 C 1315.595 330.918, 1315.008 331.857, 1315.058 334.929 C 1315.180 342.505, 1316.387 345.849, 1319.944 348.466 C 1322.926 350.659, 1324.422 351, 1331.073 351 L 1338.757 351 1343.550 345.390 L 1348.342 339.780 1354.326 340.457 C 1358.522 340.932, 1361.345 341.924, 1363.774 343.777 L 1367.238 346.419 1366.558 353.923 C 1365.922 360.935, 1365.587 361.768, 1361.439 366.623 L 1357 371.819 1357 384.048 L 1357 396.277 1362.735 403.287 L 1368.469 410.296 1368.850 471.144 L 1369.230 531.992 1359.004 542.996 L 1348.777 554 1331.424 554 C 1315.503 554, 1313.988 553.846, 1313.071 552.132 C 1311.781 549.722, 1307.202 548.829, 1302.617 550.095 L 1299 551.094 1299 556.926 C 1299 562.406, 1299.173 562.829, 1301.874 563.948 C 1305.587 565.486, 1311.742 564.350, 1313.062 561.884 C 1313.993 560.145, 1315.466 560, 1332.156 560 L 1350.242 560 1363.121 547.886 L 1376 535.773 1376 471.605 L 1376 407.437 1370 401.500 L 1364 395.563 1364 384.997 L 1364 374.432 1369.500 369 L 1375 363.568 1375 352.588 C 1375 342.353, 1374.821 341.349, 1372.364 337.804 L 1369.728 334 1359.607 334 L 1349.486 334 1344 329.500 C 1338.563 325.040, 1338.447 325, 1331.007 325.040 C 1324.192 325.076, 1323.108 325.369, 1319.250 328.218 M 128.471 372.640 C 126.520 374.763, 124.102 377.400, 123.098 378.500 C 119.923 381.979, 119.643 384.732, 122.052 388.785 C 123.929 391.943, 124.278 394.088, 124.380 403.096 C 124.519 415.358, 125.304 417, 131.034 417 C 134.107 417, 135.314 416.387, 137.426 413.750 C 141.089 409.178, 141.504 408.744, 144.361 406.500 C 147.290 404.199, 147.913 399.003, 145.500 397 C 144.328 396.027, 144 393.274, 144 384.401 C 144 371.649, 143.584 370.894, 135.760 369.464 C 132.320 368.836, 131.734 369.091, 128.471 372.640 M 213.687 418.883 L 209.955 423.777 196.004 424.500 L 182.053 425.222 177.527 430.521 L 173 435.819 173 448.191 L 173 460.563 179 466.500 L 185 472.437 185 486.111 L 185 499.785 180 503.598 L 175 507.411 175 518.124 L 175 528.838 167.126 535.947 L 159.252 543.057 158.511 571.272 L 157.769 599.487 144.884 613.122 L 132 626.758 132 669.758 L 132 712.759 163 743 L 194 773.241 194 782.120 C 194 793.630, 194.729 794.451, 205.700 795.297 C 214.906 796.007, 220.279 794.867, 222.471 791.739 C 224.059 789.471, 224.514 783.314, 223.235 781.403 C 222.831 780.799, 219.600 780.009, 216.056 779.648 C 212.512 779.286, 209.231 778.430, 208.765 777.745 C 207.574 775.994, 208.580 768.896, 210.174 767.802 C 210.904 767.301, 216.007 767.164, 221.524 767.498 L 231.547 768.103 233.774 765.092 C 235.803 762.347, 236 760.947, 236 749.253 L 236 736.425 231 731.500 C 226.113 726.686, 226 726.441, 226 720.630 C 226 715.195, 225.646 714.226, 221.878 709.342 L 217.757 704 203.564 704 L 189.371 704 182.215 695.750 L 175.058 687.500 175.029 665.866 L 175 644.232 191 629 L 207 613.768 207 594.435 L 207 575.102 210.500 572.432 L 214 569.763 214 554.286 C 214 540.274, 214.195 538.536, 216.055 535.923 C 217.944 533.270, 218.054 532.157, 217.420 522.129 L 216.729 511.221 219.615 507.444 L 222.500 503.667 223.606 465.084 C 224.264 442.103, 225.192 424.712, 225.899 422.079 C 227.302 416.856, 226.456 415.577, 220.960 414.611 C 217.627 414.024, 217.202 414.274, 213.687 418.883 M 1316.401 465.639 C 1315.247 466.663, 1312.772 468.857, 1310.901 470.515 C 1304.980 475.765, 1304 478.094, 1304 486.924 C 1304 494.357, 1304.193 495.099, 1306.750 497.484 C 1312.821 503.148, 1316.760 505.168, 1322.803 505.716 C 1328.105 506.197, 1329.376 505.917, 1334.643 503.110 C 1342.039 499.167, 1344.457 494.708, 1344.480 484.963 C 1344.499 477.163, 1342.289 471.763, 1337.397 467.656 C 1334.493 465.218, 1332.903 464.738, 1326.255 464.295 C 1319.647 463.855, 1318.190 464.054, 1316.401 465.639 M 155.997 478.216 C 155.995 482.222, 155.699 493.262, 155.340 502.750 L 154.685 520 160.211 520 L 165.737 520 166.470 496.435 C 166.874 483.475, 167.046 472.736, 166.852 472.571 C 166.658 472.406, 164.137 471.969, 161.250 471.601 L 156 470.931 155.997 478.216 M 1012.389 545.904 C 1010.677 546.948, 1008.284 549.197, 1007.070 550.901 C 1005.261 553.442, 1004.175 554, 1001.039 554 C 998.474 554, 997.014 554.521, 996.607 555.582 C 995.522 558.409, 995.959 578.816, 997.161 581.453 C 998.117 583.552, 999.011 584, 1002.242 584 C 1005.199 584, 1007.189 584.827, 1010.332 587.360 C 1015.848 591.806, 1020.005 592.548, 1025.030 589.984 C 1027.177 588.889, 1029.398 587.125, 1029.967 586.062 C 1030.561 584.952, 1031 576.957, 1031 567.253 L 1031 550.374 1028.250 547.811 C 1024.399 544.222, 1016.669 543.293, 1012.389 545.904 M 776.521 566.943 L 767.542 576 761.271 576 L 755 576 755.032 580.750 C 755.081 588.046, 756.306 589, 765.628 589 L 773.536 589 783.768 578.733 C 793.857 568.610, 794 568.400, 794 563.733 C 794 560.384, 793.598 559, 792.625 559 C 791.869 559, 789.956 558.750, 788.375 558.443 C 785.799 557.945, 784.567 558.828, 776.521 566.943 M 1216.662 644.500 L 1212.900 649 1177.841 649 L 1142.781 649 1131.391 659.624 L 1120 670.247 1120 725.402 L 1120 780.558 1113.520 786.980 C 1107.229 793.216, 1107.058 793.519, 1107.640 797.451 C 1108.112 800.637, 1109.493 802.784, 1114.120 807.527 L 1120 813.554 1120 874.891 L 1120 936.228 1125 942 L 1130 947.772 1130 961.190 L 1130 974.608 1126.500 978 C 1123.282 981.119, 1123 981.866, 1123 987.267 C 1123 992.676, 1123.321 993.522, 1127.053 997.948 L 1131.106 1002.755 1222.994 1003.500 L 1314.882 1004.245 1317.191 1006.750 C 1318.461 1008.128, 1320.839 1009.830, 1322.476 1010.532 C 1325.053 1011.638, 1325.959 1011.551, 1329.226 1009.885 L 1333 1007.959 1333 998.884 C 1333 992.131, 1332.564 989.071, 1331.297 986.925 C 1329.739 984.288, 1329.247 984.095, 1325.547 984.669 C 1322.953 985.071, 1319.834 986.680, 1316.861 989.148 L 1312.222 993 1233.340 993 L 1154.458 993 1145.819 984.250 L 1137.180 975.500 1136.482 960.356 L 1135.784 945.212 1130.892 940.394 L 1126 935.575 1126 910.288 C 1126 890.235, 1126.269 885, 1127.297 885 C 1128.010 885, 1130.260 886.706, 1132.297 888.792 C 1135.493 892.065, 1136 893.221, 1136 897.233 C 1136 899.790, 1135.513 902.183, 1134.919 902.550 C 1134.175 903.010, 1134.062 907.004, 1134.559 915.359 L 1135.280 927.500 1157.380 950.364 L 1179.480 973.228 1211.490 972.539 L 1243.500 971.851 1245.745 969.175 C 1247.640 966.917, 1247.991 965.312, 1247.995 958.874 L 1248 951.248 1263.250 936.754 L 1278.500 922.261 1299.465 921.513 C 1323.259 920.664, 1325 920.171, 1325 914.279 C 1325 911.887, 1324.029 909.562, 1321.916 906.894 L 1318.832 903 1285.475 903 C 1264.316 903, 1251.892 902.634, 1251.500 902 C 1251.118 901.382, 1242.358 901, 1228.546 901 L 1206.211 901 1187.893 881.916 C 1177.819 871.420, 1168.344 862.195, 1166.838 861.416 C 1165.332 860.637, 1162.107 860, 1159.671 860 C 1155.765 860, 1155.117 859.676, 1154.177 857.250 C 1153.474 855.434, 1152.880 825.633, 1152.429 769.468 L 1151.747 684.436 1154.420 683.218 C 1156.248 682.386, 1163.665 682, 1177.853 682 C 1198.425 682, 1198.642 682.022, 1202 684.500 C 1206.580 687.879, 1213.137 687.954, 1216.426 684.665 C 1218.436 682.655, 1218.861 680.932, 1219.480 672.281 C 1220.126 663.256, 1220.429 662.108, 1222.454 661.025 C 1223.694 660.361, 1226.379 657.581, 1228.420 654.847 C 1231.546 650.660, 1232.025 649.373, 1231.455 646.688 C 1230.459 642, 1228.246 640, 1224.057 640 C 1220.975 640, 1219.853 640.683, 1216.662 644.500 M 747.500 684 C 746.168 685.472, 744.420 686, 740.880 686 C 737.317 686, 735.831 686.454, 735.148 687.750 C 734.619 688.753, 733.911 729.551, 733.488 783.303 L 732.750 877.106 735.050 879.553 C 737.348 881.999, 737.355 882, 758.466 882 L 779.584 882 784 886.500 L 788.416 891 801.093 891 C 817.609 891, 817 890.220, 817 911.357 L 817 926.784 808.119 934.892 C 800.469 941.875, 798.740 943, 795.654 943 C 791.200 943, 790.445 944.305, 789.528 953.598 L 788.828 960.696 772.914 976.586 L 757 992.477 757 1003.320 L 757 1014.163 760.500 1018.435 C 763.953 1022.649, 764 1022.833, 764 1032.179 C 764 1040.990, 764.175 1041.815, 766.500 1044 C 768.309 1045.699, 769 1047.390, 769 1050.118 C 769 1055.618, 771.510 1057, 781.504 1057 L 789.563 1057 795.500 1051 L 801.437 1045 807.604 1045 C 817.033 1045, 817 1044.901, 817 1073.291 C 817 1102.308, 816.304 1101, 831.758 1101 C 845.027 1101, 845 1101.034, 845 1084.161 L 845 1071.768 839 1065 L 833 1058.232 833 1033.200 L 833 1008.168 829.106 1005.084 L 825.212 1002 808.306 1002 C 796.490 1002, 791.039 1001.639, 790.200 1000.800 C 789.540 1000.140, 789 997.381, 789 994.670 L 789 989.740 804.468 973.620 C 812.976 964.754, 827.141 950.075, 835.946 941 L 851.954 924.500 851.977 910.458 L 852 896.416 856.288 892.208 L 860.576 888 870.443 888 C 879.481 888, 880.593 887.785, 883.656 885.449 L 887 882.898 887.027 867.199 L 887.054 851.500 896.213 841.250 L 905.373 831 922.605 831 L 939.837 831 941.918 827.632 C 943.936 824.367, 944 823.041, 944 784.287 C 944 739.198, 944.318 741, 936.371 741 C 934.187 741, 931.860 740.460, 931.200 739.800 C 929.267 737.867, 929.768 729.853, 932 727 C 933.783 724.721, 933.957 722.817, 933.978 705.424 C 934 686.764, 933.950 686.301, 931.686 684.174 L 929.371 682 839.341 682 C 750.580 682, 749.284 682.028, 747.500 684 M 1198.346 698.601 C 1193.885 700.802, 1192.508 707.766, 1195.500 713 C 1196.702 715.103, 1196.935 727.078, 1196.965 788.337 L 1197 861.173 1205.750 870.700 C 1215.478 881.291, 1217.642 882.603, 1222.652 880.950 C 1226.796 879.582, 1228.181 877.181, 1227.334 872.832 C 1226.610 869.112, 1225.503 868.038, 1222.369 868.015 C 1221.133 868.006, 1219.151 866.575, 1217.651 864.609 C 1216.228 862.743, 1212.800 859.555, 1210.032 857.523 L 1205 853.830 1205 783.974 C 1205 739.783, 1205.357 713.897, 1205.973 713.517 C 1206.508 713.186, 1207.407 711.201, 1207.972 709.104 C 1209.283 704.234, 1207.804 699.687, 1204.403 698.138 C 1201.417 696.777, 1202.158 696.721, 1198.346 698.601 M 269.750 740.115 C 267.002 742.165, 267 742.175, 267 754.880 L 267 767.594 263 771.500 L 259 775.406 259 842.309 L 259 909.212 262.084 913.106 L 265.168 917 317.872 917 L 370.575 917 375.288 912.216 L 380 907.431 380 883.944 L 380 860.456 371.500 852 L 363 843.544 363.015 833.522 C 363.024 828.010, 363.361 822.987, 363.765 822.360 C 364.169 821.733, 366.742 819.370, 369.482 817.110 L 374.463 813 420.532 813 C 455.029 813, 466.901 812.699, 467.800 811.800 C 468.684 810.916, 469 802.065, 469 778.194 L 469 745.788 465.916 741.894 L 462.832 738 367.666 738.032 C 273.285 738.063, 272.477 738.080, 269.750 740.115 M 1315.364 761.443 C 1310.638 763.500, 1305.711 771.305, 1305.263 777.448 C 1304.952 781.703, 1305.440 783.525, 1308.354 789 C 1313.080 797.877, 1315.457 799.491, 1323.818 799.496 C 1332.569 799.501, 1337.596 796.459, 1341.379 788.868 C 1348.751 774.074, 1340.367 759.930, 1324.290 760.039 C 1321.105 760.061, 1317.089 760.692, 1315.364 761.443 M 396 827.396 C 396 831.788, 396.015 831.806, 413.886 848.918 L 431.772 866.045 432.461 872.773 L 433.150 879.500 446.311 892.750 C 459.747 906.277, 461.541 907.386, 466.066 904.965 C 467.925 903.970, 468 902.482, 468 866.522 L 468 829.113 470.223 827.557 C 471.929 826.362, 475.181 826, 484.223 826 L 496 826 496 872.281 L 496 918.563 489.959 924.531 C 484.583 929.843, 483.950 930.885, 484.209 934 L 484.500 937.500 490.646 938 C 494.519 938.315, 497.508 939.148, 498.725 940.250 C 500.323 941.697, 502.593 942, 511.843 942 L 523.028 942 525.985 938.750 L 528.941 935.500 528.971 881.937 L 529 828.374 526.195 825.687 L 523.391 823 459.695 823 L 396 823 396 827.396 M 190.250 833.496 L 187 836.943 187 862.936 C 187 892.824, 187.643 891, 177.105 891 C 171.118 891, 171.037 891.039, 164.842 896.916 C 159.837 901.664, 157.754 902.960, 154.290 903.479 C 151.916 903.835, 149.167 903.870, 148.180 903.557 C 147.194 903.244, 143.125 899.340, 139.139 894.882 C 130.395 885.103, 130.119 883.088, 137.282 881.320 C 139.912 880.671, 143.399 879.548, 145.032 878.826 C 147.841 877.582, 148.002 877.190, 148.032 871.506 C 148.051 867.818, 148.630 864.751, 149.532 863.559 C 150.339 862.491, 151 860.331, 151 858.759 C 151 855.739, 148.481 850.003, 146.610 848.765 C 145.072 847.747, 130 847.807, 130 848.831 C 130 849.288, 128.875 850.264, 127.500 851 C 125.162 852.251, 125 852.842, 125 860.126 C 125 867.829, 124.961 867.946, 121.500 870.707 L 118 873.500 118 883.250 C 118 888.612, 118.379 893, 118.843 893 C 119.307 893, 122.232 896.217, 125.343 900.150 L 131 907.300 131 920.474 L 131 933.649 125.452 941.074 C 122.401 945.158, 119.476 948.650, 118.952 948.833 C 118.428 949.017, 118 952.052, 118 955.579 L 118 961.992 125.884 970.246 C 130.220 974.786, 135.508 980.567, 137.634 983.094 L 141.500 987.688 151.284 988.251 C 157.802 988.627, 161.892 989.354, 163.534 990.431 C 165.961 992.021, 166.001 992.270, 166.032 1006.273 C 166.070 1023.422, 166.339 1024, 174.278 1024 C 183.809 1024, 183 1027.376, 183 987.605 L 183 952.424 199 936.531 L 215 920.638 215 905.626 L 215 890.614 204.910 880.361 L 194.820 870.107 195.160 859.101 C 195.347 853.048, 195.956 847.640, 196.513 847.084 C 197.071 846.528, 200.179 845.761, 203.419 845.381 C 211.276 844.457, 213.431 842.358, 212.550 836.483 C 212.193 834.107, 211.362 831.768, 210.701 831.285 C 210.040 830.802, 205.900 830.326, 201.500 830.228 C 193.584 830.051, 193.466 830.086, 190.250 833.496 M 538.250 1061.678 C 537.496 1061.973, 537 1064.038, 537 1066.887 C 537 1070.901, 537.487 1072.079, 540.250 1074.754 C 542.394 1076.830, 544.955 1078.132, 547.776 1078.582 C 554.328 1079.627, 556 1082.672, 556 1093.559 L 556 1102.310 638.203 1184.655 L 720.406 1267 771.966 1267 L 823.525 1267 838.500 1282 L 853.475 1297 869.855 1297 L 886.235 1297 894.118 1304.106 L 902 1311.212 902 1319.403 C 902 1327.567, 902.013 1327.606, 905.792 1331.297 C 908.691 1334.127, 910.402 1335, 913.054 1335 C 916.207 1335, 918.024 1336.504, 933 1351.500 L 949.477 1368 955.994 1368 L 962.510 1368 1000.255 1405.755 L 1038 1443.510 1038 1498.047 L 1038 1552.584 1042.500 1557 L 1047 1561.416 1047 1584.249 C 1047 1605.883, 1047.110 1607.230, 1049.102 1609.925 L 1051.205 1612.768 1079.311 1613.508 C 1104.769 1614.178, 1107.661 1614.429, 1110.012 1616.167 C 1113.210 1618.531, 1120.506 1617.791, 1122.028 1614.948 C 1123.269 1612.628, 1122.104 1606.840, 1120.081 1605.282 C 1117.667 1603.422, 1111.848 1603.783, 1108.500 1606 C 1105.718 1607.842, 1103.768 1607.987, 1081.700 1607.993 C 1062.313 1607.999, 1057.354 1607.717, 1054.950 1606.474 L 1052 1604.949 1052 1582.177 L 1052 1559.406 1048 1555.500 L 1044 1551.594 1044 1497.697 L 1044 1443.799 999.846 1398.900 L 955.692 1354 948.580 1354 L 941.467 1354 930.083 1342.583 C 921.351 1333.826, 917.905 1331.017, 915.293 1330.527 C 909.393 1329.420, 908.002 1327.083, 907.986 1318.250 L 907.973 1310.500 898.844 1301.250 L 889.715 1292 872.596 1292 L 855.476 1292 840 1276.500 L 824.524 1261 773.180 1261 L 721.835 1261 641.418 1181.254 L 561 1101.508 561 1088.477 L 561 1075.446 554.250 1068.842 C 548.767 1063.478, 546.749 1062.140, 543.500 1061.714 C 541.300 1061.425, 538.938 1061.409, 538.250 1061.678 M 1316.371 1085.351 C 1309.107 1088.814, 1303.855 1096.732, 1303.862 1104.211 C 1303.869 1110.970, 1304.698 1112.980, 1309 1116.669 C 1319.855 1125.976, 1325.224 1127.147, 1333.368 1121.981 C 1338.721 1118.587, 1342.204 1115.357, 1343.872 1112.239 C 1345.493 1109.210, 1345.268 1099.285, 1343.507 1096.154 C 1342.686 1094.694, 1341.593 1092.318, 1341.079 1090.874 C 1339.909 1087.589, 1332.476 1083.826, 1326.102 1083.292 C 1322.701 1083.007, 1320.162 1083.545, 1316.371 1085.351 M 390 1159.730 L 390 1186.460 398.729 1195.230 L 407.458 1204 421.694 1204 C 434.745 1204, 436.016 1203.839, 436.965 1202.066 C 437.534 1201.002, 438 1195.261, 438 1189.308 L 438 1178.484 415.242 1155.742 C 402.725 1143.234, 391.925 1133, 391.242 1133 C 390.284 1133, 390 1139.104, 390 1159.730 M 503.250 1157.662 C 502.365 1158.019, 502 1161.138, 502 1168.346 L 502 1178.526 516.263 1192.763 L 530.525 1207 541.263 1207 L 552 1207 552 1202.877 C 552 1198.876, 551.410 1198.143, 531.882 1177.877 C 512.776 1158.050, 511.581 1157.004, 508.132 1157.079 C 506.134 1157.122, 503.938 1157.385, 503.250 1157.662 M 1266.732 1164.289 L 1259.965 1170.500 1259.982 1180.648 L 1260 1190.796 1244 1206.031 L 1228 1221.266 1228 1287.430 L 1228 1353.594 1224 1357.500 L 1220 1361.406 1220 1378.518 L 1220 1395.630 1233.009 1430.524 C 1240.164 1449.715, 1246.351 1465.742, 1246.759 1466.138 C 1247.835 1467.183, 1257.248 1465.210, 1258.179 1463.744 C 1258.614 1463.060, 1258.987 1446.300, 1259.008 1426.500 L 1259.046 1390.500 1274.574 1373.869 L 1290.101 1357.238 1327.944 1356.501 L 1365.787 1355.764 1366.893 1353.335 C 1368.348 1350.143, 1368.313 1338.782, 1366.839 1335.547 C 1365.710 1333.068, 1365.415 1333, 1355.806 1333 C 1347.401 1333, 1345.232 1333.353, 1341.217 1335.377 C 1338.623 1336.684, 1334.925 1338.083, 1333 1338.485 C 1331.075 1338.887, 1328.512 1340.123, 1327.304 1341.232 C 1325.214 1343.150, 1324.303 1343.212, 1308.554 1342.517 L 1291.999 1341.787 1289 1338 C 1286.437 1334.764, 1286.001 1333.358, 1286.005 1328.356 C 1286.009 1323.748, 1286.501 1321.887, 1288.313 1319.621 L 1290.617 1316.743 1313.276 1317.482 L 1335.934 1318.220 1341.148 1322.110 L 1346.361 1326 1356.026 1326 C 1369.784 1326, 1369 1327.642, 1369 1298.846 C 1369 1270.677, 1368.588 1271.633, 1381.219 1270.477 C 1388.427 1269.818, 1389.105 1269.552, 1391.469 1266.452 C 1393.633 1263.615, 1394 1262.094, 1394 1255.971 C 1394 1250.333, 1393.560 1248.191, 1391.932 1245.904 L 1389.864 1243 1370.651 1243 L 1351.437 1243 1345.500 1237 L 1339.563 1231 1320.365 1231 L 1301.168 1231 1298.084 1227.106 L 1295 1223.212 1295 1198.834 L 1295 1174.456 1286.729 1166.228 C 1280.740 1160.270, 1277.774 1158.011, 1275.979 1158.039 C 1274.366 1158.065, 1271.135 1160.249, 1266.732 1164.289 M 232.687 1181.805 C 230.202 1184.399, 230 1185.248, 230 1193.109 C 230 1201.410, 230.077 1201.682, 233.298 1204.804 L 236.595 1208 269.721 1208 L 302.846 1208 339.810 1244.500 L 376.773 1281 397.136 1281.019 L 417.500 1281.038 442 1304.482 L 466.500 1327.926 467 1358.213 L 467.500 1388.500 472.372 1388.810 C 476.304 1389.060, 477.703 1388.688, 479.622 1386.885 L 482 1384.651 482 1352.202 L 482 1319.753 450.879 1287.877 L 419.759 1256 402.504 1256 L 385.249 1256 347.506 1217.500 L 309.764 1179 272.569 1179 L 235.374 1179 232.687 1181.805 M 519.174 1290.314 C 517.068 1292.556, 517 1293.373, 517 1316.279 C 517 1343.374, 516.500 1342, 526.366 1342 C 531.293 1342, 532.079 1342.302, 533.932 1344.904 C 535.692 1347.376, 536 1349.302, 536 1357.837 L 536 1367.866 540.500 1371.554 C 544.956 1375.205, 545 1375.301, 545 1381.465 C 545 1386.420, 545.408 1388.059, 547 1389.500 C 548.394 1390.761, 549 1392.580, 549 1395.500 C 549 1398.420, 548.394 1400.239, 547 1401.500 C 545.207 1403.123, 545 1404.580, 545 1415.578 L 545 1427.845 550.358 1432.423 L 555.716 1437 577.162 1437 L 598.608 1437 601.804 1433.702 L 605 1430.405 605 1396.575 L 605 1362.746 568.382 1325.373 L 531.764 1288 526.556 1288 C 522.406 1288, 520.907 1288.470, 519.174 1290.314 M 1023.719 1304.779 L 1018 1310.558 1018 1335.394 L 1018 1360.230 1022.250 1366.086 C 1026.348 1371.732, 1026.663 1371.943, 1031.050 1371.971 C 1033.552 1371.987, 1036.140 1372.540, 1036.800 1373.200 C 1037.650 1374.050, 1038 1380.022, 1038 1393.700 L 1038 1413 1035.258 1413 C 1033.018 1413, 1028.441 1408.927, 1010.258 1390.758 L 988 1368.517 988 1337.413 C 988 1309.043, 987.846 1306.175, 986.250 1304.773 C 983.083 1301.992, 980.323 1301.737, 978.190 1304.027 C 975.307 1307.121, 975 1310.018, 975 1334.125 L 975 1356 972.216 1356 C 970.166 1356, 967.999 1354.549, 964 1350.500 L 958.568 1345 951.392 1345 L 944.216 1345 936.108 1336.119 C 928.479 1327.762, 928 1326.971, 928 1322.734 C 928 1317.066, 925.316 1315.020, 916.873 1314.255 L 911 1313.722 911 1318.790 C 911 1324.619, 912.459 1326.620, 917.381 1327.544 C 919.883 1328.013, 923.496 1330.972, 932.083 1339.583 L 943.467 1351 950.583 1351 L 957.700 1351 1002.350 1396.397 L 1047 1441.795 1047 1495.694 L 1047 1549.594 1051 1553.500 L 1055 1557.406 1055 1569.136 L 1055 1580.866 1059.353 1584.433 L 1063.706 1588 1091.103 1588.015 C 1112.410 1588.027, 1119.389 1588.350, 1122.500 1589.471 C 1127.413 1591.241, 1132.085 1591.374, 1135.453 1589.839 C 1137.651 1588.838, 1138 1588.041, 1138 1584.031 C 1138 1577.231, 1136.593 1575.898, 1128.752 1575.268 C 1122.502 1574.767, 1121.880 1574.915, 1117.865 1577.868 L 1113.606 1581 1090.671 1581 C 1069.182 1581, 1067.524 1580.869, 1064.368 1578.918 L 1061 1576.837 1061 1566.807 L 1061 1556.778 1057 1552 L 1053 1547.222 1053 1459.521 L 1053 1371.819 1057.500 1366.552 L 1062 1361.284 1062 1338.912 L 1062 1316.540 1053.271 1307.770 L 1044.542 1299 1036.990 1299 L 1029.437 1299 1023.719 1304.779 M 243.500 1404.873 C 240.174 1405.579, 239.293 1408.417, 240.464 1414.658 C 241.064 1417.860, 241.279 1418, 245.595 1418 C 248.072 1418, 251.505 1417.273, 253.222 1416.385 C 255.926 1414.987, 258.806 1414.867, 274.690 1415.494 L 293.035 1416.218 300.160 1424.109 L 307.285 1432 318.968 1432 C 336.520 1432, 335 1427.728, 335 1477.071 L 335 1517.514 362.381 1544.881 L 389.762 1572.248 390.506 1620.367 L 391.250 1668.487 401.625 1679.611 L 412 1690.735 412 1702.746 L 412 1714.757 417.303 1719.288 C 421.243 1722.653, 423.778 1723.994, 427.162 1724.502 C 431.295 1725.121, 432.728 1726.198, 442.592 1736.092 L 453.466 1747 467.315 1747 L 481.163 1747 485.570 1750.611 L 489.977 1754.222 520.887 1753.487 L 551.797 1752.751 559.123 1745.376 L 566.450 1738 575.491 1738 L 584.533 1738 596 1726.500 L 607.467 1715 632.355 1715 L 657.243 1715 671.871 1728.876 L 686.500 1742.752 704.500 1743.459 L 722.500 1744.166 727.462 1739.083 L 732.425 1734 740.597 1734 C 748.180 1734, 748.887 1733.822, 750.385 1731.535 C 751.273 1730.180, 752 1727.816, 752 1726.283 C 752 1724.025, 751.195 1723.070, 747.750 1721.246 C 745.413 1720.007, 742.591 1718.996, 741.480 1718.997 C 740.262 1718.999, 735.707 1722.769, 730 1728.500 L 720.540 1738 704.148 1738 L 687.757 1738 673 1724 L 658.243 1710 632.011 1710 L 605.779 1710 593.521 1721.500 L 581.264 1733 573.528 1733 L 565.793 1733 557.532 1740.500 L 549.271 1748 519.186 1748 L 489.102 1748 486.432 1744.500 L 483.763 1741 469.250 1741 L 454.736 1741 442.479 1729.500 C 431.681 1719.369, 429.806 1718, 426.729 1718 C 423.927 1718, 422.721 1717.322, 420.619 1714.567 C 418.150 1711.330, 418 1710.485, 418 1699.800 L 418 1688.466 407 1677.500 L 396 1666.534 396 1618.510 L 396 1570.487 368 1542.500 L 340 1514.513 340 1472.924 L 340 1431.335 336.059 1428.167 C 332.178 1425.048, 331.952 1425, 321.287 1425 L 310.456 1425 302.138 1416.639 L 293.821 1408.278 276.160 1407.570 C 263.545 1407.065, 257.867 1406.454, 256.285 1405.431 C 254.018 1403.966, 248.840 1403.740, 243.500 1404.873 M 1317.155 1463.224 C 1311.097 1465.252, 1305.445 1472.974, 1303.523 1481.851 C 1302.377 1487.141, 1304.623 1493.214, 1309.493 1497.993 C 1313.728 1502.149, 1313.907 1502.216, 1322.353 1502.742 C 1332.230 1503.359, 1335.970 1502.256, 1339.150 1497.789 C 1340.304 1496.169, 1342.283 1493.808, 1343.547 1492.544 C 1347.515 1488.576, 1348.405 1483.426, 1346.300 1476.605 C 1344.835 1471.855, 1343.544 1469.914, 1339.657 1466.620 C 1335.077 1462.738, 1334.468 1462.520, 1327.666 1462.317 C 1323.725 1462.200, 1318.995 1462.608, 1317.155 1463.224 M 704.200 1576.200 C 703.540 1576.860, 703 1579.084, 703 1581.143 C 703 1585.546, 705.701 1588, 710.548 1588 C 714.732 1588, 718 1591.564, 718 1596.127 C 718 1601.365, 714.051 1604.640, 706.645 1605.543 C 702.405 1606.060, 695.805 1608.567, 682.723 1614.628 L 664.656 1623 644.189 1623 L 623.722 1623 617.457 1617.500 L 611.193 1612 556.299 1612 L 501.406 1612 497.703 1615.792 C 494.567 1619.003, 494 1620.259, 494 1623.987 C 494 1627.403, 494.602 1629.019, 496.687 1631.195 L 499.374 1634 551.466 1634 L 603.558 1634 610 1640.500 L 616.442 1647 668.471 1646.989 L 720.500 1646.977 730.250 1638.309 L 740 1629.641 740 1605.225 C 740 1582.144, 739.887 1580.650, 737.932 1577.904 L 735.864 1575 720.632 1575 C 710.118 1575, 705.028 1575.372, 704.200 1576.200 M 1316.500 1576.141 C 1315.400 1576.794, 1313.177 1578.604, 1311.560 1580.164 C 1309.943 1581.724, 1308.267 1583, 1307.836 1583 C 1306.216 1583, 1304 1589.067, 1304 1593.502 C 1304 1598.957, 1309.653 1610.786, 1313.848 1614.111 C 1319.643 1618.704, 1339.378 1613.963, 1343.445 1607 C 1345.051 1604.251, 1345.491 1601.745, 1345.495 1595.323 C 1345.501 1586.211, 1344.547 1584.186, 1337.597 1578.561 C 1334.226 1575.834, 1333.003 1575.477, 1326.161 1575.230 C 1321.543 1575.063, 1317.706 1575.425, 1316.500 1576.141 M 1380.196 1602.713 C 1375.984 1603.518, 1374.466 1612.301, 1377.988 1615.489 C 1379.724 1617.060, 1381.300 1617.221, 1390.402 1616.756 C 1396.137 1616.464, 1401.317 1615.922, 1401.914 1615.553 C 1402.511 1615.184, 1403 1612.257, 1403 1609.048 C 1403 1604.651, 1402.610 1603.065, 1401.418 1602.607 C 1399.672 1601.937, 1383.842 1602.016, 1380.196 1602.713 M 270.174 1647.314 C 268.290 1649.320, 268.004 1650.754, 268.032 1658.064 C 268.054 1663.892, 268.518 1667.100, 269.532 1668.441 C 271.514 1671.062, 271.379 1672, 269.019 1672 C 266.477 1672, 266.055 1670.065, 265.747 1657 L 265.500 1646.500 252.750 1646.220 L 240 1645.940 240 1662.585 L 240 1679.230 223.376 1696.615 L 206.752 1714 197.310 1714 C 183.060 1714, 184 1712.414, 184 1736.451 L 184 1756.832 187.894 1759.916 C 191.628 1762.873, 192.180 1763, 201.317 1763 L 210.845 1763 215.544 1757.500 C 219.651 1752.693, 220.704 1752, 223.898 1752 C 227.096 1752, 228.424 1752.877, 234.500 1759 L 241.446 1766 268.973 1765.993 C 294.760 1765.987, 296.690 1765.861, 299.500 1764 C 301.150 1762.907, 303.947 1762.010, 305.715 1762.007 C 307.865 1762.002, 309.272 1761.360, 309.965 1760.066 C 310.639 1758.806, 311 1740.577, 311 1707.782 L 311 1657.432 305.719 1652.216 C 301.553 1648.102, 299.757 1647, 297.219 1647 L 294 1647 294 1660 L 294 1673 289.250 1672.868 C 284.781 1672.744, 284.707 1672.700, 288 1672.118 L 291.500 1671.500 291.785 1660.602 C 292.049 1650.526, 291.904 1649.527, 289.861 1647.352 C 287.915 1645.280, 286.740 1645, 280 1645 C 273.295 1645, 272.080 1645.286, 270.174 1647.314 M 750.250 1685.662 L 747 1689.313 747 1703.136 L 747 1716.959 751 1719 C 754.873 1720.976, 755 1721.202, 755 1726.116 C 755 1729.644, 754.370 1732.077, 752.932 1734.096 C 750.936 1736.898, 750.576 1737, 742.644 1737 L 734.425 1737 729.462 1742.098 L 724.500 1747.197 704.528 1746.503 L 684.555 1745.808 669.899 1731.904 L 655.243 1718 632.355 1718 L 609.467 1718 598 1729.500 L 586.533 1741 577.538 1741 L 568.544 1741 561.022 1748.418 L 553.500 1755.835 520.761 1756.547 L 488.023 1757.260 483.593 1753.630 L 479.163 1750 465.313 1750 L 451.462 1750 441.500 1740 C 433.558 1732.028, 430.963 1730, 428.703 1730 C 423.846 1730, 422 1731.630, 422 1735.920 C 422 1740.785, 424.992 1743, 431.561 1743 C 435.736 1743, 436.799 1743.531, 442.346 1748.391 L 448.500 1753.782 462.500 1754.511 C 476.336 1755.231, 476.554 1755.279, 481.134 1758.620 L 485.768 1762 520.659 1762 L 555.550 1762 563 1754.500 L 570.450 1747 578.961 1747 L 587.471 1747 599.626 1734.874 L 611.781 1722.748 633.260 1723.480 L 654.738 1724.212 669.106 1738.606 L 683.474 1753 705.521 1753 L 727.568 1753 733 1747.500 L 738.432 1742 746.020 1742 C 753.290 1742, 753.741 1741.862, 756.804 1738.702 C 759.783 1735.629, 760 1734.927, 760 1728.378 C 760 1721.953, 759.701 1720.931, 756.500 1716.429 C 751.620 1709.566, 751.706 1705.337, 756.850 1699.139 C 762.188 1692.707, 762.728 1689.821, 759.408 1685.469 C 757.953 1683.561, 756.029 1682.002, 755.131 1682.005 C 754.234 1682.008, 752.038 1683.654, 750.250 1685.662 M 362.449 1759.468 C 360.355 1764.480, 360.632 1766.273, 364 1769.500 L 367 1772.374 367 1821.945 L 367 1871.515 391.258 1895.758 L 415.515 1920 464.869 1920 L 514.222 1920 519 1916 C 522.999 1912.652, 524.501 1912, 528.214 1912 C 531.559 1912, 533.187 1912.570, 534.826 1914.314 C 536.810 1916.427, 537 1917.683, 537 1928.691 L 537 1940.754 546.394 1949.377 L 555.788 1958 561.394 1958 L 567 1958 567 1952.860 C 567 1946.212, 565.523 1945.073, 556.843 1945.032 L 550.186 1945 546.093 1940.111 L 542 1935.222 542 1924.314 L 542 1913.406 538.208 1909.703 C 534.650 1906.229, 534.028 1906, 528.140 1906 C 522.188 1906, 521.581 1906.232, 516.341 1910.500 L 510.817 1915 464.786 1915 L 418.754 1915 395.859 1892.864 L 372.964 1870.728 373.361 1820.614 C 373.579 1793.051, 374.083 1768.352, 374.481 1765.727 C 374.879 1763.101, 374.925 1759.839, 374.583 1758.477 C 374.025 1756.252, 373.451 1756, 368.930 1756 C 364.133 1756, 363.830 1756.162, 362.449 1759.468 M 225.174 1835.314 C 223.381 1837.223, 223 1838.823, 223 1844.443 C 223 1850.826, 222.779 1851.503, 219.500 1855.132 C 216.769 1858.155, 216 1859.857, 216 1862.880 C 216 1867.393, 217.104 1868.560, 222.290 1869.529 C 228.501 1870.690, 230 1868.522, 230 1858.380 C 230 1850.679, 230.209 1849.829, 232.849 1846.785 C 236.210 1842.910, 237.603 1836.460, 235.527 1834.384 C 233.303 1832.160, 227.661 1832.667, 225.174 1835.314 M 1247.584 1872.748 C 1238.701 1873.011, 1236.426 1873.390, 1235.366 1874.786 C 1234.378 1876.086, 1234.056 1882.592, 1234.032 1901.750 C 1234.002 1925.690, 1234.104 1927.104, 1236 1929 C 1237.878 1930.878, 1239.333 1931, 1259.788 1931 L 1281.575 1931 1286.500 1926 L 1291.425 1921 1300.590 1921 C 1307.517 1921, 1310.059 1920.634, 1311 1919.500 C 1311.685 1918.675, 1312.804 1918, 1313.488 1918 C 1314.171 1918, 1315.939 1917.049, 1317.417 1915.887 C 1319.680 1914.106, 1321.117 1913.838, 1326.545 1914.184 C 1332.157 1914.541, 1333.411 1915.006, 1336.290 1917.797 C 1339.401 1920.812, 1340.028 1921, 1346.960 1921 C 1353.377 1921, 1354.915 1920.625, 1358.912 1918.088 C 1362.700 1915.684, 1365.030 1915.052, 1372.267 1914.468 C 1380.339 1913.817, 1381.192 1913.540, 1383.017 1910.976 C 1384.607 1908.743, 1385 1906.565, 1385 1899.984 C 1385 1891.842, 1384.968 1891.739, 1380.907 1886.889 L 1376.814 1882 1370.382 1882 C 1364.991 1882, 1362.796 1882.581, 1356.821 1885.590 C 1350.588 1888.729, 1349.113 1889.097, 1345.096 1888.512 C 1342.568 1888.144, 1338.620 1886.754, 1336.322 1885.422 C 1332.865 1883.418, 1330.784 1883, 1324.263 1883 C 1316.995 1883, 1315.920 1883.278, 1310.441 1886.581 C 1304.941 1889.897, 1304.100 1890.113, 1299.108 1889.492 C 1293.988 1888.854, 1293.293 1888.396, 1285.325 1880.410 L 1276.933 1872 1267.717 1872.212 C 1262.648 1872.329, 1253.588 1872.570, 1247.584 1872.748 M 62.481 1989.885 C 57.562 1991.136, 50.843 1996.659, 48.641 2001.261 C 46.940 2004.817, 46.621 2007.434, 46.664 2017.500 C 46.693 2024.100, 47.254 2032.052, 47.913 2035.172 L 49.109 2040.844 55.805 2044.172 C 61.638 2047.071, 63.488 2047.500, 70.169 2047.500 C 76.926 2047.500, 78.148 2047.209, 80.439 2045.058 C 89.268 2036.763, 92.106 2025.283, 89.129 2009.908 C 88.121 2004.705, 86.733 1999.546, 86.045 1998.443 C 84.377 1995.773, 73.391 1990.020, 69 1989.517 C 67.075 1989.297, 64.141 1989.462, 62.481 1989.885 M 487.753 2172.413 C 483.683 2173.879, 476.475 2179.590, 475.654 2182 C 475.373 2182.825, 474.866 2188.450, 474.528 2194.500 C 473.917 2205.434, 473.931 2205.531, 476.948 2210.699 C 479.251 2214.646, 481.038 2216.366, 484.362 2217.836 C 486.771 2218.902, 489.052 2220.274, 489.430 2220.887 C 490.857 2223.195, 497.624 2222.100, 502.637 2218.750 C 509.345 2214.267, 511.187 2209.035, 510.646 2196 C 510.100 2182.858, 507.827 2177.229, 501.910 2174.367 C 495.691 2171.360, 492.069 2170.860, 487.753 2172.413 M 1120.500 2176.393 C 1116.649 2178.080, 1109.265 2186.098, 1108.404 2189.524 C 1107.372 2193.637, 1108.694 2201.697, 1111.072 2205.788 C 1112.258 2207.830, 1114.833 2210.850, 1116.794 2212.500 C 1120.171 2215.342, 1120.822 2215.499, 1129.169 2215.476 L 1137.979 2215.452 1143.567 2209.976 C 1150.934 2202.756, 1152 2200.506, 1152 2192.185 C 1152 2183.705, 1150.113 2180.824, 1142.294 2177.366 C 1136.164 2174.655, 1125.547 2174.181, 1120.500 2176.393 M 56 2180.353 C 49.383 2184.293, 47.486 2188.426, 48.436 2196.836 C 49.298 2204.475, 51.298 2207.590, 58.211 2212.058 C 63.188 2215.275, 65.207 2216, 69.187 2216 C 76.657 2216, 80.344 2213.958, 84.689 2207.413 C 88.070 2202.321, 88.500 2200.978, 88.500 2195.513 C 88.500 2187.908, 85.881 2183.563, 78.946 2179.665 C 71.844 2175.673, 63.437 2175.925, 56 2180.353 M 386.348 2181.752 C 380.515 2187.128, 379 2190.725, 379 2199.197 C 379 2204.910, 379.151 2205.246, 383.804 2209.900 C 388.975 2215.071, 393.026 2216.521, 399.069 2215.367 C 408.801 2213.507, 416.279 2205.992, 417.405 2196.938 C 418.112 2191.252, 417.164 2188.533, 411.939 2181.266 C 410.153 2178.782, 403.881 2177.060, 396.500 2177.026 C 391.912 2177.005, 391.076 2177.395, 386.348 2181.752 M 1378.507 2186.250 C 1378.271 2186.938, 1378.172 2190.200, 1378.289 2193.500 L 1378.500 2199.500 1385.203 2200.402 C 1390.636 2201.133, 1392.957 2200.973, 1397.453 2199.559 C 1402.115 2198.092, 1403 2197.439, 1403 2195.463 C 1403 2194.170, 1401.987 2192.025, 1400.750 2190.697 C 1396.937 2186.605, 1379.579 2183.134, 1378.507 2186.250 M 1317.500 2188.286 C 1310.289 2192.497, 1308.660 2193.986, 1306.323 2198.500 C 1301.691 2207.444, 1303.279 2218.236, 1310.488 2226.803 C 1314.844 2231.980, 1326.131 2233.226, 1334.553 2229.459 C 1340.450 2226.821, 1343.534 2221.337, 1345.023 2210.840 C 1345.946 2204.331, 1345.836 2203.032, 1343.982 2198.531 C 1341.543 2192.611, 1338.699 2190.272, 1331.661 2188.398 C 1325.449 2186.744, 1320.211 2186.703, 1317.500 2188.286" stroke="none" fill="#040404" fill-rule="evenodd"/></svg>
